<svg width="374" height="65" viewBox="0 0 374 65" fill="none" xmlns="http://www.w3.org/2000/svg">
<path d="M25.5599 4.5C26.2199 4.56001 26.5799 4.74001 26.6399 5.04001C26.6999 5.28001 26.3999 5.37001 25.7399 5.31C22.4999 5.01 19.4099 5.37001 16.4699 6.39001C13.5299 7.35 10.9199 8.67 8.63991 10.35C6.41991 12.03 4.64991 13.8 3.32991 15.66C2.06991 17.52 1.43991 19.14 1.43991 20.52C1.43991 23.22 2.48991 25.23 4.58991 26.55C6.68991 27.87 9.38991 28.53 12.6899 28.53C15.5699 28.53 18.6299 28.05 21.8699 27.09C25.1099 26.07 28.2899 24.78 31.4099 23.22C34.5299 21.6 37.3499 19.92 39.8699 18.18C42.3899 16.38 44.3999 14.7 45.8999 13.14C47.3999 11.58 48.1499 10.32 48.1499 9.36001C48.1499 8.64001 47.8499 8.19001 47.2499 8.01001C46.7099 7.77001 46.0799 7.65001 45.3599 7.65001C43.3799 7.65001 40.9799 8.34001 38.1599 9.72001C35.3399 11.1 32.3099 12.99 29.0699 15.39C25.8899 17.73 22.7399 20.34 19.6199 23.22C16.5599 26.1 13.7399 29.07 11.1599 32.13C8.63991 35.13 6.59991 38.01 5.03991 40.77C3.53991 43.53 2.78991 45.93 2.78991 47.97C2.78991 50.25 3.47991 51.9 4.85991 52.92C6.29991 53.94 7.97991 54.45 9.89991 54.45C11.7599 54.45 13.6499 53.94 15.5699 52.92C17.5499 51.9 19.4699 50.58 21.3299 48.96C23.1899 47.34 24.8399 45.6 26.2799 43.74C27.7799 41.88 28.9499 40.05 29.7899 38.25C30.6899 36.45 31.1399 34.89 31.1399 33.57C31.1399 32.43 30.8099 31.68 30.1499 31.32C29.5499 30.96 28.8299 30.78 27.9899 30.78C25.6499 30.78 23.3399 31.5 21.0599 32.94C18.7799 34.32 16.7099 36.18 14.8499 38.52C12.9899 40.8 11.4899 43.32 10.3499 46.08C9.26991 48.78 8.72991 51.48 8.72991 54.18C8.72991 55.2 8.90991 56.37 9.26991 57.69C9.62991 59.01 9.98991 60.15 10.3499 61.11C10.7099 62.13 10.8899 62.76 10.8899 63C10.9499 63.42 10.8899 63.75 10.7099 63.99C10.5299 64.23 10.2599 64.14 9.89991 63.72C9.53991 63.36 9.08991 62.34 8.54991 60.66C8.00991 58.98 7.73991 56.88 7.73991 54.36C7.73991 51.36 8.27991 48.42 9.35991 45.54C10.4999 42.66 12.0299 40.05 13.9499 37.71C15.8699 35.31 18.0899 33.42 20.6099 32.04C23.1299 30.6 25.8299 29.88 28.7099 29.88C30.2099 29.88 31.5299 30.3 32.6699 31.14C33.8099 31.92 34.3799 33.09 34.3799 34.65C34.3799 36.51 33.7499 38.61 32.4899 40.95C31.2899 43.29 29.5499 45.57 27.2699 47.79C25.0499 49.95 22.4099 51.75 19.3499 53.19C16.3499 54.57 13.0799 55.26 9.53991 55.26C6.41991 55.26 4.10991 54.39 2.60991 52.65C1.16991 50.85 0.449912 48.9 0.449912 46.8C0.449912 43.92 1.10991 40.95 2.42991 37.89C3.80991 34.83 5.66991 31.8 8.00991 28.8C10.3499 25.8 13.0199 22.98 16.0199 20.34C19.0199 17.7 22.1999 15.39 25.5599 13.41C28.9799 11.37 32.3999 9.78001 35.8199 8.64C39.2399 7.44001 42.5099 6.84001 45.6299 6.84001C46.3499 6.84001 47.0999 6.99001 47.8799 7.29001C48.6599 7.59001 49.0499 8.16 49.0499 9C49.0499 10.68 48.2699 12.45 46.7099 14.31C45.2099 16.17 43.1399 18 40.4999 19.8C37.9199 21.54 35.0399 23.13 31.8599 24.57C28.6799 26.01 25.4099 27.18 22.0499 28.08C18.7499 28.92 15.5999 29.34 12.5999 29.34C8.69991 29.34 5.60991 28.62 3.32991 27.18C1.10991 25.68 -8.76412e-05 23.16 -8.76412e-05 19.62C-8.76412e-05 17.76 0.749912 15.9 2.24991 14.04C3.74991 12.12 5.72991 10.41 8.18991 8.91001C10.7099 7.41001 13.4699 6.24001 16.4699 5.40001C19.5299 4.56001 22.5599 4.26001 25.5599 4.5ZM71.4993 7.98702e-06C72.2193 0.120006 72.9693 0.210005 73.7493 0.270005C74.5893 0.270005 75.4293 0.180006 76.2693 7.98702e-06C76.2093 0.0600072 75.6993 0.780007 74.7393 2.16001C73.7793 3.48001 72.4593 5.28001 70.7793 7.56001C69.1593 9.78001 67.3293 12.3 65.2893 15.12C63.3093 17.94 61.2393 20.85 59.0793 23.85C56.9793 26.79 54.9093 29.67 52.8693 32.49C50.8893 35.25 49.0593 37.77 47.3793 40.05C45.7593 42.33 44.4693 44.16 43.5093 45.54C42.5493 46.92 42.0393 47.64 41.9793 47.7C41.9793 47.7 42.0093 47.76 42.0693 47.88C42.1293 47.94 42.1593 48 42.1593 48.06C43.6593 46.44 45.2793 44.67 47.0193 42.75C48.7593 40.83 50.5293 39.03 52.3293 37.35C54.1293 35.61 55.8993 34.2 57.6393 33.12C59.4393 32.04 61.0893 31.5 62.5893 31.5C64.5093 31.5 65.7393 31.95 66.2793 32.85C66.8793 33.69 67.1793 34.44 67.1793 35.1C67.1793 36.36 66.7593 37.74 65.9193 39.24C65.0793 40.74 64.0293 42.24 62.7693 43.74C61.5693 45.24 60.3393 46.65 59.0793 47.97C57.8793 49.23 56.8593 50.34 56.0193 51.3C55.1793 52.26 54.7593 52.95 54.7593 53.37C54.7593 53.85 55.1193 54.15 55.8393 54.27C56.6193 54.33 57.2493 54.36 57.7293 54.36C59.1093 54.36 60.6093 53.85 62.2293 52.83C63.8493 51.81 65.4393 50.55 66.9993 49.05C68.5593 47.55 69.9693 46.08 71.2293 44.64C72.4893 43.2 73.4493 42.06 74.1093 41.22L74.8293 41.76C74.2293 42.48 73.3293 43.59 72.1293 45.09C70.9293 46.53 69.4893 48.06 67.8093 49.68C66.1893 51.24 64.4193 52.59 62.4993 53.73C60.5793 54.81 58.5693 55.35 56.4693 55.35C55.6893 55.35 54.7893 55.14 53.7693 54.72C52.7493 54.36 52.2393 53.55 52.2393 52.29C52.2393 51.27 52.6293 50.1 53.4093 48.78C54.2493 47.4 55.2693 45.99 56.4693 44.55C57.6693 43.05 58.8693 41.61 60.0693 40.23C61.3293 38.85 62.3493 37.59 63.1293 36.45C63.9693 35.25 64.3893 34.29 64.3893 33.57C64.3893 32.79 63.8193 32.4 62.6793 32.4C61.2393 32.4 59.4993 33.09 57.4593 34.47C55.4793 35.79 53.3793 37.56 51.1593 39.78C48.9393 42 46.7193 44.4 44.4993 46.98C42.3393 49.56 40.3293 52.11 38.4693 54.63C37.6893 54.51 36.8193 54.45 35.8593 54.45C34.8993 54.45 33.9993 54.57 33.1593 54.81C33.1593 54.81 33.6993 54.06 34.7793 52.56C35.8593 51 37.3293 48.93 39.1893 46.35C40.9893 43.71 43.0293 40.77 45.3093 37.53C47.5893 34.23 49.9293 30.87 52.3293 27.45C54.7293 23.97 57.0693 20.61 59.3493 17.37C61.6293 14.07 63.6693 11.13 65.4693 8.55001C67.3293 5.91001 68.7993 3.84001 69.8793 2.34C70.9593 0.780007 71.4993 7.98702e-06 71.4993 7.98702e-06ZM93.5162 38.79C93.2762 39.27 92.9162 39.69 92.4362 40.05C92.0162 40.41 91.6862 40.65 91.4462 40.77C91.2662 40.83 91.3262 40.65 91.6262 40.23C92.7062 38.91 93.3962 37.68 93.6962 36.54C94.0562 35.4 94.0562 34.5 93.6962 33.84C93.3962 33.12 92.7962 32.76 91.8962 32.76C90.6962 32.76 89.2862 33.24 87.6662 34.2C86.0462 35.16 84.3662 36.42 82.6262 37.98C80.9462 39.54 79.3562 41.22 77.8562 43.02C76.4162 44.76 75.2462 46.47 74.3462 48.15C73.4462 49.77 72.9962 51.18 72.9962 52.38C72.9962 53.28 73.1762 53.85 73.5362 54.09C73.8962 54.33 74.2562 54.45 74.6162 54.45C75.9962 54.45 77.5862 53.82 79.3862 52.56C81.2462 51.24 83.1362 49.59 85.0562 47.61C86.9762 45.63 88.8062 43.62 90.5462 41.58C92.2862 39.48 93.7862 37.59 95.0462 35.91C96.3662 34.23 97.2662 33.09 97.7462 32.49C98.4062 32.73 99.1862 32.82 100.086 32.76C101.046 32.7 101.856 32.64 102.516 32.58C102.396 32.76 101.766 33.51 100.626 34.83C99.5462 36.15 98.2262 37.74 96.6662 39.6C95.1662 41.4 93.6362 43.26 92.0762 45.18C90.5762 47.1 89.3162 48.78 88.2962 50.22C87.2762 51.66 86.7662 52.62 86.7662 53.1C86.7662 53.7 86.8862 54.09 87.1262 54.27C87.4262 54.39 87.8762 54.45 88.4762 54.45C89.1962 54.39 90.2462 54.06 91.6262 53.46C93.0062 52.8 94.7762 51.54 96.9362 49.68C99.0962 47.82 101.706 45.06 104.766 41.4C104.766 41.4 104.886 41.49 105.126 41.67C105.426 41.85 105.576 41.94 105.576 41.94C101.976 46.14 98.6462 49.44 95.5862 51.84C92.5262 54.18 89.7362 55.35 87.2162 55.35C85.8962 55.35 84.9962 55.14 84.5162 54.72C84.0962 54.3 83.8862 53.7 83.8862 52.92C83.8862 52.32 84.1262 51.6 84.6062 50.76C85.1462 49.86 85.7462 48.99 86.4062 48.15C87.0662 47.31 87.6062 46.65 88.0262 46.17C88.0262 46.17 87.9662 46.14 87.8462 46.08C87.7262 46.02 87.6662 45.99 87.6662 45.99C86.2862 47.67 84.8162 49.23 83.2562 50.67C81.6962 52.11 80.1362 53.25 78.5762 54.09C77.0762 54.93 75.6062 55.35 74.1662 55.35C72.6662 55.35 71.6162 54.99 71.0162 54.27C70.4162 53.49 70.1162 52.32 70.1162 50.76C70.1162 49.26 70.5962 47.46 71.5562 45.36C72.5162 43.2 73.8962 41.1 75.6962 39.06C77.4962 36.96 79.6562 35.22 82.1762 33.84C84.7562 32.46 87.6362 31.77 90.8162 31.77C92.3762 31.77 93.4562 32.07 94.0562 32.67C94.6562 33.21 94.9262 33.87 94.8662 34.65C94.8062 35.43 94.6262 36.21 94.3262 36.99C94.0262 37.77 93.7562 38.37 93.5162 38.79ZM137.776 55.35C136.456 55.35 135.406 55.08 134.626 54.54C133.846 54 133.456 53.31 133.456 52.47C133.456 51.39 133.876 50.19 134.716 48.87C135.556 47.49 136.576 46.05 137.776 44.55C139.036 43.05 140.266 41.61 141.466 40.23C142.726 38.79 143.776 37.5 144.616 36.36C145.456 35.22 145.876 34.29 145.876 33.57C145.876 33.09 145.756 32.76 145.516 32.58C145.276 32.4 144.856 32.31 144.256 32.31C143.356 32.31 142.156 32.79 140.656 33.75C139.216 34.65 137.596 35.91 135.796 37.53C134.056 39.09 132.256 40.86 130.396 42.84C128.596 44.76 126.856 46.74 125.176 48.78C123.496 50.82 122.056 52.74 120.856 54.54C120.136 54.3 119.326 54.21 118.426 54.27C117.526 54.33 116.566 54.45 115.546 54.63C116.926 52.89 118.486 50.97 120.226 48.87C122.026 46.71 123.736 44.61 125.356 42.57C126.976 40.53 128.326 38.7 129.406 37.08C130.486 35.4 131.026 34.17 131.026 33.39C131.026 32.97 130.846 32.7 130.486 32.58C130.186 32.4 129.736 32.31 129.136 32.31C127.876 32.31 126.256 33.06 124.276 34.56C122.296 36.06 120.196 37.98 117.976 40.32C115.756 42.6 113.566 45.03 111.406 47.61C109.306 50.13 107.446 52.44 105.826 54.54C105.226 54.36 104.506 54.27 103.666 54.27C102.826 54.21 101.806 54.33 100.606 54.63C102.826 51.33 105.016 48.21 107.176 45.27C109.396 42.27 111.226 39.69 112.666 37.53C114.166 35.37 114.916 33.93 114.916 33.21C114.916 33.03 114.856 32.91 114.736 32.85C114.676 32.73 114.556 32.67 114.376 32.67C113.776 32.67 112.936 33.24 111.856 34.38C110.836 35.52 109.756 36.81 108.616 38.25C107.476 39.69 106.456 40.92 105.556 41.94L104.746 41.4C105.346 40.74 106.066 39.87 106.906 38.79C107.746 37.65 108.646 36.54 109.606 35.46C110.626 34.32 111.646 33.36 112.666 32.58C113.686 31.8 114.676 31.41 115.636 31.41C116.356 31.41 116.956 31.62 117.436 32.04C117.976 32.4 118.246 32.88 118.246 33.48C118.246 34.26 118.006 35.13 117.526 36.09C117.046 36.99 116.386 38.04 115.546 39.24C114.706 40.38 113.746 41.64 112.666 43.02C111.646 44.4 110.566 45.93 109.426 47.61L109.606 47.97C110.806 46.71 112.036 45.33 113.296 43.83C114.616 42.33 115.966 40.86 117.346 39.42C118.726 37.98 120.106 36.66 121.486 35.46C122.866 34.26 124.276 33.3 125.716 32.58C127.156 31.86 128.566 31.5 129.946 31.5C131.386 31.5 132.376 31.86 132.916 32.58C133.456 33.3 133.726 33.99 133.726 34.65C133.726 35.61 133.546 36.57 133.186 37.53C132.826 38.49 132.376 39.42 131.836 40.32C131.296 41.16 130.756 41.94 130.216 42.66C129.676 43.32 129.196 43.86 128.776 44.28C128.356 44.7 128.116 44.97 128.056 45.09L127.516 44.64C127.936 44.22 128.596 43.5 129.496 42.48C130.396 41.46 131.446 40.35 132.646 39.15C133.906 37.89 135.226 36.69 136.606 35.55C137.986 34.35 139.366 33.39 140.746 32.67C142.126 31.89 143.446 31.5 144.706 31.5C146.206 31.5 147.226 31.89 147.766 32.67C148.366 33.39 148.666 34.05 148.666 34.65C148.666 35.97 148.246 37.44 147.406 39.06C146.566 40.62 145.516 42.21 144.256 43.83C142.996 45.39 141.736 46.86 140.476 48.24C139.216 49.62 138.166 50.79 137.326 51.75C136.486 52.65 136.066 53.22 136.066 53.46C136.066 54 136.696 54.27 137.956 54.27C139.576 54.27 141.196 53.76 142.816 52.74C144.496 51.72 146.086 50.49 147.586 49.05C149.086 47.55 150.436 46.08 151.636 44.64C152.896 43.14 153.916 41.97 154.696 41.13L155.416 41.67C154.696 42.45 153.676 43.59 152.356 45.09C151.096 46.59 149.656 48.15 148.036 49.77C146.416 51.33 144.736 52.65 142.996 53.73C141.256 54.81 139.516 55.35 137.776 55.35ZM155.754 55.35C154.614 55.35 153.564 55.02 152.604 54.36C151.584 53.64 151.074 52.53 151.074 51.03C151.074 49.47 151.674 47.4 152.874 44.82C154.014 42.24 155.604 39.36 157.644 36.18C159.684 33 161.964 29.76 164.484 26.46C167.064 23.1 169.734 19.89 172.494 16.83C175.314 13.71 178.074 10.92 180.774 8.46001C183.474 5.94001 185.964 3.96001 188.244 2.52001C190.524 1.02001 192.444 0.270005 194.004 0.270005C195.024 0.330004 195.684 0.540005 195.984 0.900007C196.344 1.20001 196.524 1.68001 196.524 2.34C196.524 4.38001 195.894 6.48001 194.634 8.64C193.434 10.8 191.814 12.93 189.774 15.03C187.734 17.07 185.514 18.99 183.114 20.79C180.714 22.59 178.314 24.18 175.914 25.56C173.574 26.94 171.414 28.02 169.434 28.8C167.514 29.58 166.044 29.97 165.024 29.97C164.364 29.97 163.974 29.79 163.854 29.43C163.734 29.01 164.124 28.8 165.024 28.8C167.124 28.8 169.494 28.14 172.134 26.82C174.834 25.44 177.534 23.7 180.234 21.6C182.934 19.44 185.424 17.16 187.704 14.76C189.984 12.3 191.814 9.99001 193.194 7.83C194.634 5.67001 195.354 3.90001 195.354 2.52001C195.354 1.56001 194.874 1.08 193.914 1.08C192.954 1.08 191.604 1.83001 189.864 3.33001C188.124 4.77001 186.144 6.72001 183.924 9.18001C181.764 11.64 179.454 14.4 176.994 17.46C174.534 20.46 172.074 23.52 169.614 26.64C167.034 29.94 164.454 33.18 161.874 36.36C159.354 39.54 157.254 42.45 155.574 45.09C153.894 47.73 153.054 49.95 153.054 51.75C153.054 52.65 153.294 53.34 153.774 53.82C154.194 54.24 154.914 54.45 155.934 54.45C157.974 54.45 159.924 53.91 161.784 52.83C163.644 51.75 165.294 50.37 166.734 48.69C168.174 46.95 169.314 45.15 170.154 43.29C170.994 41.37 171.414 39.6 171.414 37.98C171.414 37.62 171.294 36.99 171.054 36.09C170.874 35.13 170.874 34.26 171.054 33.48C171.294 32.7 171.984 32.31 173.124 32.31C173.724 32.31 174.204 32.55 174.564 33.03C174.924 33.45 175.104 33.99 175.104 34.65C175.104 36.87 174.564 39.18 173.484 41.58C172.464 43.98 171.054 46.23 169.254 48.33C167.454 50.43 165.384 52.14 163.044 53.46C160.764 54.72 158.334 55.35 155.754 55.35ZM173.484 48.6C172.464 48.6 171.744 48.3 171.324 47.7C170.964 47.1 170.784 46.47 170.784 45.81C170.784 45.09 170.784 44.55 170.784 44.19C170.784 44.19 170.964 44.16 171.324 44.1C171.684 43.98 171.864 43.89 171.864 43.83C171.864 44.07 171.834 44.52 171.774 45.18C171.714 45.78 171.774 46.35 171.954 46.89C172.194 47.43 172.704 47.7 173.484 47.7C174.384 47.7 175.314 47.4 176.274 46.8C177.294 46.14 178.254 45.39 179.154 44.55C180.054 43.71 180.774 42.96 181.314 42.3C181.914 41.58 182.244 41.13 182.304 40.95C182.304 40.95 182.424 41.04 182.664 41.22C182.904 41.4 183.024 41.49 183.024 41.49C182.904 41.67 182.514 42.15 181.854 42.93C181.254 43.65 180.474 44.46 179.514 45.36C178.614 46.2 177.624 46.95 176.544 47.61C175.524 48.27 174.504 48.6 173.484 48.6ZM182.002 42.75C181.762 42.99 181.582 43.02 181.462 42.84C181.342 42.6 181.312 42.36 181.372 42.12C182.392 41.1 183.382 39.9 184.342 38.52C185.362 37.14 186.202 35.85 186.862 34.65C187.582 33.45 188.002 32.64 188.122 32.22C188.242 32.22 188.422 32.13 188.662 31.95C188.962 31.77 189.232 31.71 189.472 31.77C189.412 32.19 189.322 32.58 189.202 32.94C189.142 33.3 189.352 33.63 189.832 33.93C190.312 34.23 191.302 34.53 192.802 34.83C194.302 35.13 196.582 35.46 199.642 35.82C199.942 35.88 200.152 36 200.272 36.18C200.452 36.3 200.362 36.51 200.002 36.81C198.862 37.71 197.602 38.85 196.222 40.23C194.842 41.61 193.492 43.08 192.172 44.64C190.912 46.14 189.862 47.61 189.022 49.05C188.242 50.49 187.852 51.69 187.852 52.65C187.852 53.73 188.332 54.27 189.292 54.27C190.492 54.27 191.842 53.79 193.342 52.83C194.902 51.87 196.462 50.7 198.022 49.32C199.582 47.88 201.022 46.44 202.342 45C203.722 43.5 204.862 42.27 205.762 41.31L206.482 41.85C205.642 42.69 204.562 43.86 203.242 45.36C201.922 46.86 200.422 48.39 198.742 49.95C197.122 51.45 195.382 52.74 193.522 53.82C191.662 54.84 189.742 55.35 187.762 55.35C186.622 55.35 185.602 55.08 184.702 54.54C183.802 54.06 183.352 53.16 183.352 51.84C183.352 50.58 183.892 49.26 184.972 47.88C186.052 46.5 187.402 45.12 189.022 43.74C190.642 42.3 192.322 40.95 194.062 39.69C195.862 38.37 197.452 37.17 198.832 36.09L199.462 36.9C198.862 36.66 197.812 36.45 196.312 36.27C194.812 36.03 193.252 35.73 191.632 35.37C190.012 34.95 188.602 34.41 187.402 33.75C186.262 33.09 185.692 32.19 185.692 31.05C185.692 30.45 185.932 29.73 186.412 28.89C186.952 27.99 187.672 27.54 188.572 27.54C189.412 27.54 189.982 27.72 190.282 28.08C190.582 28.38 190.732 28.8 190.732 29.34C190.732 29.7 190.432 30.45 189.832 31.59C189.232 32.67 188.482 33.96 187.582 35.46C186.682 36.9 185.722 38.28 184.702 39.6C183.742 40.92 182.842 41.97 182.002 42.75ZM209.874 55.35C207.054 55.35 205.194 54.72 204.294 53.46C203.394 52.14 202.944 50.76 202.944 49.32C202.944 46.86 203.574 44.58 204.834 42.48C206.094 40.32 207.714 38.4 209.694 36.72C211.674 35.04 213.714 33.75 215.814 32.85C217.974 31.89 219.894 31.41 221.574 31.41C222.774 31.41 223.734 31.59 224.454 31.95C225.174 32.25 225.534 32.91 225.534 33.93C225.534 34.89 224.964 35.91 223.824 36.99C222.684 38.07 221.244 39.12 219.504 40.14C217.764 41.1 215.934 42 214.014 42.84C212.154 43.62 210.444 44.25 208.884 44.73C207.324 45.21 206.184 45.45 205.464 45.45C205.464 45.45 205.464 45.3 205.464 45C205.464 44.64 205.464 44.46 205.464 44.46C206.004 44.52 206.934 44.34 208.254 43.92C209.634 43.5 211.164 42.96 212.844 42.3C214.524 41.58 216.144 40.77 217.704 39.87C219.324 38.97 220.644 38.01 221.664 36.99C222.744 35.97 223.284 34.98 223.284 34.02C223.284 33.54 223.134 33.12 222.834 32.76C222.594 32.4 222.144 32.22 221.484 32.22C220.524 32.22 219.354 32.7 217.974 33.66C216.654 34.56 215.304 35.76 213.924 37.26C212.544 38.76 211.254 40.35 210.054 42.03C208.854 43.71 207.864 45.33 207.084 46.89C206.364 48.39 206.004 49.65 206.004 50.67C206.004 51.87 206.364 52.77 207.084 53.37C207.804 53.97 208.854 54.27 210.234 54.27C212.634 54.27 214.884 53.7 216.984 52.56C219.144 51.36 221.094 49.98 222.834 48.42C224.574 46.8 226.044 45.3 227.244 43.92C228.444 42.48 229.254 41.55 229.674 41.13C229.674 41.13 229.764 41.22 229.944 41.4C230.184 41.58 230.304 41.67 230.304 41.67C229.884 42.15 229.074 43.11 227.874 44.55C226.674 45.99 225.174 47.55 223.374 49.23C221.574 50.91 219.534 52.35 217.254 53.55C214.974 54.75 212.514 55.35 209.874 55.35ZM275.435 55.35C272.255 55.35 270.665 54.42 270.665 52.56C270.665 51.36 271.055 50.07 271.835 48.69C272.675 47.31 273.695 45.93 274.895 44.55C276.095 43.11 277.295 41.7 278.495 40.32C279.755 38.94 280.775 37.68 281.555 36.54C282.395 35.34 282.815 34.32 282.815 33.48C282.815 33.18 282.665 32.94 282.365 32.76C282.125 32.52 281.765 32.4 281.285 32.4C280.565 32.4 279.545 32.76 278.225 33.48C276.965 34.2 275.345 35.43 273.365 37.17C271.445 38.85 269.165 41.13 266.525 44.01C263.885 46.83 260.855 50.37 257.435 54.63C256.895 54.51 256.085 54.45 255.005 54.45C253.925 54.45 252.995 54.57 252.215 54.81C253.955 52.29 255.665 49.83 257.345 47.43C259.025 45.03 260.555 42.84 261.935 40.86C263.375 38.88 264.515 37.26 265.355 36C266.195 34.68 266.615 33.87 266.615 33.57C266.615 33.03 266.345 32.76 265.805 32.76C265.205 32.76 264.455 33.24 263.555 34.2C262.655 35.1 261.665 36.27 260.585 37.71C259.505 39.09 258.395 40.5 257.255 41.94L256.445 41.4C257.645 40.02 258.815 38.58 259.955 37.08C261.095 35.58 262.265 34.29 263.465 33.21C264.665 32.13 265.925 31.59 267.245 31.59C267.905 31.59 268.505 31.77 269.045 32.13C269.645 32.43 269.945 32.94 269.945 33.66C269.945 34.32 269.675 35.13 269.135 36.09C268.655 36.99 267.995 38.04 267.155 39.24C266.315 40.38 265.355 41.67 264.275 43.11C263.255 44.49 262.175 45.99 261.035 47.61L261.125 48.15C264.305 44.67 266.975 41.85 269.135 39.69C271.355 37.53 273.185 35.88 274.625 34.74C276.125 33.54 277.415 32.73 278.495 32.31C279.635 31.83 280.715 31.59 281.735 31.59C283.115 31.59 284.105 31.89 284.705 32.49C285.305 33.03 285.605 33.78 285.605 34.74C285.605 36.18 285.185 37.71 284.345 39.33C283.505 40.89 282.455 42.45 281.195 44.01C279.995 45.51 278.765 46.92 277.505 48.24C276.305 49.5 275.285 50.58 274.445 51.48C273.605 52.38 273.185 52.98 273.185 53.28C273.185 53.64 273.275 53.91 273.455 54.09C273.695 54.27 274.265 54.36 275.165 54.36C277.385 54.36 279.485 53.67 281.465 52.29C283.505 50.91 285.455 49.23 287.315 47.25C289.175 45.21 290.915 43.2 292.535 41.22L293.255 41.85C291.635 43.77 289.865 45.78 287.945 47.88C286.025 49.98 284.015 51.75 281.915 53.19C279.815 54.63 277.655 55.35 275.435 55.35ZM312.912 18.45C311.412 18.45 310.092 17.91 308.952 16.83C307.872 15.69 307.332 14.37 307.332 12.87C307.332 11.37 307.872 10.08 308.952 9C310.092 7.92 311.412 7.38 312.912 7.38C314.412 7.38 315.702 7.92 316.782 9C317.862 10.08 318.402 11.37 318.402 12.87C318.402 14.37 317.862 15.69 316.782 16.83C315.702 17.91 314.412 18.45 312.912 18.45ZM313.002 17.19C314.142 17.19 315.102 16.77 315.882 15.93C316.722 15.09 317.142 14.07 317.142 12.87C317.142 11.73 316.722 10.77 315.882 9.99001C315.102 9.15001 314.142 8.73001 313.002 8.73001C311.802 8.73001 310.782 9.15001 309.942 9.99001C309.102 10.77 308.682 11.73 308.682 12.87C308.682 14.07 309.102 15.09 309.942 15.93C310.782 16.77 311.802 17.19 313.002 17.19ZM337.361 63.63C334.661 63.63 332.321 63.27 330.341 62.55C328.361 61.83 326.831 60.96 325.751 59.94C324.671 58.92 324.131 57.99 324.131 57.15C324.131 56.49 324.341 55.92 324.761 55.44C325.181 55.02 325.691 54.81 326.291 54.81C326.951 54.81 327.461 55.02 327.821 55.44C328.241 55.92 328.451 56.31 328.451 56.61C328.451 57.39 328.421 57.99 328.361 58.41C328.301 58.83 328.271 59.1 328.271 59.22C328.271 59.46 328.631 59.88 329.351 60.48C330.071 61.08 331.091 61.62 332.411 62.1C333.791 62.64 335.441 62.91 337.361 62.91C339.881 62.91 342.521 62.22 345.281 60.84C348.101 59.52 350.711 57.69 353.111 55.35C355.511 53.01 357.461 50.34 358.961 47.34C360.461 44.34 361.211 41.19 361.211 37.89C361.211 36.33 360.791 35.34 359.951 34.92C359.171 34.44 358.301 34.2 357.341 34.2C355.841 34.2 354.461 34.5 353.201 35.1C351.941 35.64 350.801 36.3 349.781 37.08C348.821 37.86 348.071 38.61 347.531 39.33C346.991 39.99 346.691 40.44 346.631 40.68C346.571 41.28 346.271 41.67 345.731 41.85C345.191 41.97 344.921 41.64 344.921 40.86C344.921 40.08 345.611 39.15 346.991 38.07C348.371 36.93 350.081 35.76 352.121 34.56C354.161 33.36 356.171 32.22 358.151 31.14C359.171 30.6 360.311 29.82 361.571 28.8C362.831 27.72 364.031 26.43 365.171 24.93C366.371 23.37 367.331 21.66 368.051 19.8C368.831 17.94 369.221 15.96 369.221 13.86C369.221 11.88 368.771 10.32 367.871 9.18001C367.031 8.04001 365.501 7.47001 363.281 7.47001C361.961 7.47001 360.491 7.92001 358.871 8.82001C357.251 9.72001 355.601 10.92 353.921 12.42C352.241 13.86 350.711 15.48 349.331 17.28C347.951 19.02 346.811 20.79 345.911 22.59C345.071 24.33 344.651 25.95 344.651 27.45C344.651 28.83 344.921 29.73 345.461 30.15C346.061 30.57 346.691 30.78 347.351 30.78C348.731 30.78 350.171 30.24 351.671 29.16C353.171 28.08 354.581 26.73 355.901 25.11C357.221 23.43 358.301 21.75 359.141 20.07C360.041 18.33 360.551 16.8 360.671 15.48C360.731 15 360.851 14.79 361.031 14.85C361.211 14.85 361.331 15.06 361.391 15.48C361.511 17.04 361.121 18.75 360.221 20.61C359.321 22.47 358.121 24.24 356.621 25.92C355.121 27.6 353.501 28.98 351.761 30.06C350.081 31.14 348.461 31.68 346.901 31.68C345.281 31.68 344.021 31.2 343.121 30.24C342.281 29.22 341.861 27.9 341.861 26.28C341.861 24.24 342.551 22.08 343.931 19.8C345.311 17.46 347.081 15.3 349.241 13.32C351.461 11.28 353.831 9.63001 356.351 8.37001C358.931 7.11001 361.421 6.48001 363.821 6.48001C367.121 6.48001 369.611 7.23001 371.291 8.73001C372.971 10.23 373.811 12.3 373.811 14.94C373.811 17.58 373.031 19.98 371.471 22.14C369.971 24.3 368.051 26.22 365.711 27.9C363.431 29.58 361.151 30.99 358.871 32.13C356.591 33.27 354.671 34.11 353.111 34.65L354.551 33.66C355.211 33.36 356.021 33.15 356.981 33.03C358.001 32.85 358.751 32.76 359.231 32.76C359.471 32.76 359.951 32.82 360.671 32.94C361.451 33.06 362.261 33.36 363.101 33.84C363.941 34.32 364.661 35.04 365.261 36C365.921 36.96 366.251 38.31 366.251 40.05C366.251 42.33 365.471 44.85 363.911 47.61C362.351 50.31 360.191 52.86 357.431 55.26C354.731 57.72 351.641 59.73 348.161 61.29C344.741 62.85 341.141 63.63 337.361 63.63Z" fill="black"/>
</svg>
