<svg width="300" height="198" viewBox="0 0 300 198" fill="none" xmlns="http://www.w3.org/2000/svg">
<path d="M48.2852 43.75C45.5352 43.75 42.9518 43.2083 40.5352 42.125C38.1602 41.0417 36.056 39.5625 34.2227 37.6875C32.431 35.8125 31.0143 33.6458 29.9727 31.1875C28.9727 28.6875 28.4727 26.0417 28.4727 23.25C28.4727 20.2917 28.9935 17.5208 30.0352 14.9375C31.0768 12.3125 32.5352 10.0208 34.4102 8.0625C36.2852 6.0625 38.4518 4.5 40.9102 3.375C43.4102 2.25 46.0977 1.6875 48.9727 1.6875C51.431 1.6875 53.931 1.8125 56.4727 2.0625C59.0143 2.3125 61.5768 2.70833 64.1602 3.25L64.0352 12.25C64.0352 12.875 63.5977 13.1875 62.7227 13.1875C62.306 13.1875 62.0352 13.0833 61.9102 12.875C61.7852 12.3333 61.6185 11.7917 61.4102 11.25C61.2435 10.6667 60.8685 9.91667 60.2852 9C59.2852 7.54167 57.8477 6.39583 55.9727 5.5625C54.1393 4.72917 51.8685 4.3125 49.1602 4.3125C47.1185 4.3125 45.2018 4.8125 43.4102 5.8125C41.6185 6.77083 40.0352 8.08333 38.6602 9.75C37.3268 11.4167 36.2852 13.3125 35.5352 15.4375C34.7852 17.5208 34.4102 19.6875 34.4102 21.9375C34.4102 25.3958 34.9935 28.5 36.1602 31.25C37.3268 34.0833 39.1602 36.4375 41.6602 38.3125C44.2018 40.1458 47.2018 41.0625 50.6602 41.0625C54.7852 41.0625 57.9727 39.8542 60.2227 37.4375C60.8893 36.7292 61.4102 35.8958 61.7852 34.9375C62.1602 33.9792 62.4518 33.1458 62.6602 32.4375C62.8685 31.7292 63.0768 31.375 63.2852 31.375C63.5352 31.375 63.8268 31.4167 64.1602 31.5C64.5352 31.5417 64.8268 31.625 65.0352 31.75L65.3477 31.9375C65.3477 32.1875 65.2643 32.7708 65.0977 33.6875C64.931 34.6042 64.7227 35.625 64.4727 36.75C64.2227 37.8333 63.9727 38.7917 63.7227 39.625C63.5143 40.4583 63.3477 40.9167 63.2227 41C60.1393 42.8333 55.1602 43.75 48.2852 43.75ZM68.0977 43.5625C67.931 43.3958 67.8477 43.0417 67.8477 42.5C67.8477 42 67.931 41.75 68.0977 41.75C68.431 41.75 68.8893 41.6875 69.4727 41.5625C70.056 41.4375 70.5977 41.2708 71.0977 41.0625C71.5977 40.8542 71.8685 40.6667 71.9102 40.5C72.2018 39.375 72.3477 37.9375 72.3477 36.1875V9.0625C72.3477 7.64583 72.2227 6.3125 71.9727 5.0625C71.806 4.39583 70.7435 4.0625 68.7852 4.0625H68.2227C67.9727 4.0625 67.8477 3.83333 67.8477 3.375C67.8477 2.70833 67.9727 2.375 68.2227 2.375C70.3477 2.16667 72.1393 1.83333 73.5977 1.375C75.056 0.875 76.056 0.479167 76.5977 0.1875L76.9102 0H77.0352C77.2018 0 77.3685 0.125 77.5352 0.375C77.7018 0.583333 77.806 0.791667 77.8477 1C77.3893 2.375 77.1602 4.1875 77.1602 6.4375V20.125C77.1602 20.2917 77.2018 20.375 77.2852 20.375C77.3268 20.375 77.3893 20.3333 77.4727 20.25C78.0977 19.5833 78.8893 18.9375 79.8477 18.3125C80.8477 17.6458 81.9102 17.1042 83.0352 16.6875C84.1602 16.2292 85.2227 16 86.2227 16C89.0143 16 91.0143 17 92.2227 19C93.431 21 94.0352 24.0833 94.0352 28.25V35C94.0352 36.1667 94.0768 37.2083 94.1602 38.125C94.2435 39.0417 94.3685 39.8333 94.5352 40.5C94.6185 40.6667 94.9102 40.8542 95.4102 41.0625C95.9102 41.2708 96.4518 41.4375 97.0352 41.5625C97.6185 41.6875 98.0352 41.75 98.2852 41.75C98.4102 41.75 98.4935 42 98.5352 42.5C98.5768 43 98.556 43.3542 98.4727 43.5625L91.7852 43.25L85.2227 43.5625C85.056 43.3958 84.9727 43.0417 84.9727 42.5C84.9727 42 85.056 41.75 85.2227 41.75C85.556 41.75 85.9935 41.6875 86.5352 41.5625C87.0768 41.4375 87.5768 41.2708 88.0352 41.0625C88.4935 40.8542 88.7435 40.6667 88.7852 40.5C88.9518 39.9167 89.056 39.25 89.0977 38.5C89.181 37.75 89.2227 36.9583 89.2227 36.125V29.5C89.2227 26.9167 88.9935 24.9375 88.5352 23.5625C88.0768 22.1458 87.3685 21.1667 86.4102 20.625C85.4518 20.0833 84.2227 19.8125 82.7227 19.8125C81.8893 19.8125 81.0352 20.0625 80.1602 20.5625C79.3268 21.0208 78.6185 21.5625 78.0352 22.1875C77.4518 22.8125 77.1602 23.375 77.1602 23.875V34.9375C77.1602 36.1458 77.2018 37.2083 77.2852 38.125C77.3685 39.0417 77.4935 39.8333 77.6602 40.5C77.7435 40.6667 78.0352 40.8542 78.5352 41.0625C79.0352 41.2708 79.5768 41.4375 80.1602 41.5625C80.7435 41.6875 81.1602 41.75 81.4102 41.75C81.5352 41.75 81.6185 42 81.6602 42.5C81.7018 43 81.681 43.3542 81.5977 43.5625L74.9102 43.25L68.0977 43.5625ZM108.91 43.8125C106.993 43.8125 105.41 43.3125 104.16 42.3125C102.91 41.2708 102.285 39.7292 102.285 37.6875C102.285 35.1875 103.91 33.1042 107.16 31.4375C108.577 30.7292 109.973 30.1667 111.348 29.75C112.764 29.3333 114.181 28.8542 115.598 28.3125C115.973 28.1875 116.16 27.875 116.16 27.375V22.6875C116.16 21.3542 115.743 20.3333 114.91 19.625C114.077 18.875 113.077 18.5 111.91 18.5C110.66 18.5 109.618 18.9375 108.785 19.8125C107.952 20.6458 107.535 21.75 107.535 23.125C107.535 24.5833 106.681 25.3125 104.973 25.3125C103.764 25.3125 102.952 24.9167 102.535 24.125C102.535 23.25 102.889 22.3542 103.598 21.4375C104.348 20.4792 105.306 19.6042 106.473 18.8125C107.639 18.0208 108.91 17.375 110.285 16.875C111.702 16.375 113.098 16.125 114.473 16.125C116.764 16.125 118.41 16.6875 119.41 17.8125C120.41 18.8958 120.91 20.6667 120.91 23.125V37.5625C120.91 38.4375 121.139 39.1667 121.598 39.75C122.056 40.3333 122.681 40.625 123.473 40.625C124.014 40.625 124.743 40.3333 125.66 39.75C125.827 39.75 125.91 39.9167 125.91 40.25C125.91 40.7917 125.806 41.2292 125.598 41.5625C123.889 43.0208 122.431 43.75 121.223 43.75C120.264 43.75 119.348 43.3542 118.473 42.5625C117.598 41.7708 116.993 40.9375 116.66 40.0625C116.452 40.2292 116.181 40.4583 115.848 40.75C115.556 41 115.306 41.2083 115.098 41.375C114.223 42.0417 113.264 42.625 112.223 43.125C111.223 43.5833 110.118 43.8125 108.91 43.8125ZM111.285 40.25C112.452 40.25 113.556 39.9167 114.598 39.25C115.639 38.5833 116.16 37.875 116.16 37.125V30.6875C115.077 31.1042 114.035 31.4792 113.035 31.8125C112.077 32.1458 111.306 32.4167 110.723 32.625C109.973 32.9167 109.243 33.4375 108.535 34.1875C107.868 34.9375 107.535 35.7917 107.535 36.75C107.535 38 107.91 38.8958 108.66 39.4375C109.452 39.9792 110.327 40.25 111.285 40.25ZM128.223 43.5625C128.056 43.3958 127.973 43.0417 127.973 42.5C127.973 42 128.056 41.75 128.223 41.75C128.556 41.75 129.014 41.6875 129.598 41.5625C130.181 41.4375 130.723 41.2708 131.223 41.0625C131.723 40.8542 131.993 40.6667 132.035 40.5C132.202 39.9167 132.306 39.25 132.348 38.5C132.431 37.75 132.473 36.9583 132.473 36.125V24.3125C132.473 22.7292 132.181 21.6042 131.598 20.9375C131.181 20.4375 130.681 20.1042 130.098 19.9375C129.556 19.7708 129.056 19.6875 128.598 19.6875C128.181 19.6458 127.973 19.5833 127.973 19.5C127.973 18.5 128.098 17.9792 128.348 17.9375C130.556 17.6042 132.285 17.3125 133.535 17.0625C134.827 16.8125 135.806 16.6042 136.473 16.4375L137.285 16.25C137.452 16.2083 137.556 16.375 137.598 16.75C137.639 17.0833 137.639 17.3542 137.598 17.5625C137.514 18.1458 137.452 18.6458 137.41 19.0625C137.368 19.4792 137.348 19.8125 137.348 20.0625C137.348 20.2292 137.389 20.3125 137.473 20.3125C137.514 20.3125 137.577 20.2708 137.66 20.1875C138.618 19.1875 139.91 18.25 141.535 17.375C143.202 16.4583 144.785 16 146.285 16C147.952 16 149.327 16.4583 150.41 17.375C151.535 18.25 152.306 19.2708 152.723 20.4375C155.889 17.4792 159.118 16 162.41 16C167.66 16 170.285 20 170.285 28V34.9375C170.285 36.1458 170.327 37.2083 170.41 38.125C170.493 39.0417 170.618 39.8333 170.785 40.5C170.868 40.6667 171.16 40.8542 171.66 41.0625C172.16 41.2708 172.702 41.4375 173.285 41.5625C173.868 41.6875 174.285 41.75 174.535 41.75C174.66 41.75 174.743 42 174.785 42.5C174.827 43 174.806 43.3542 174.723 43.5625L168.035 43.25L161.223 43.5625C161.056 43.3958 160.973 43.0417 160.973 42.5C160.973 42 161.056 41.75 161.223 41.75C161.556 41.75 162.014 41.6875 162.598 41.5625C163.181 41.4375 163.723 41.2708 164.223 41.0625C164.723 40.8542 164.993 40.6667 165.035 40.5C165.202 39.9167 165.306 39.2917 165.348 38.625C165.431 37.9167 165.473 37.2083 165.473 36.5V29.4375C165.473 23.0208 163.368 19.8125 159.16 19.8125C158.16 19.8125 157.223 20.0417 156.348 20.5C155.473 20.9167 154.764 21.3958 154.223 21.9375C153.723 22.4792 153.473 22.9583 153.473 23.375C153.598 24.1667 153.681 24.9792 153.723 25.8125C153.764 26.6042 153.785 27.4792 153.785 28.4375V35.5C153.785 36.5417 153.827 37.4792 153.91 38.3125C153.993 39.1042 154.118 39.8333 154.285 40.5C154.368 40.6667 154.66 40.8542 155.16 41.0625C155.66 41.2708 156.202 41.4375 156.785 41.5625C157.368 41.6875 157.785 41.75 158.035 41.75C158.16 41.75 158.243 42 158.285 42.5C158.327 43 158.306 43.3542 158.223 43.5625L151.535 43.25L144.723 43.5625C144.556 43.3958 144.473 43.0417 144.473 42.5C144.473 42 144.556 41.75 144.723 41.75C145.056 41.75 145.514 41.6875 146.098 41.5625C146.681 41.4375 147.223 41.2708 147.723 41.0625C148.223 40.8542 148.493 40.6667 148.535 40.5C148.702 39.9167 148.806 39.25 148.848 38.5C148.931 37.75 148.973 36.9583 148.973 36.125V29.75C148.973 23.125 146.973 19.8125 142.973 19.8125C142.139 19.8125 141.285 20.0417 140.41 20.5C139.535 20.9167 138.785 21.4583 138.16 22.125C137.577 22.75 137.285 23.3542 137.285 23.9375V34.9375C137.285 36.1458 137.327 37.2083 137.41 38.125C137.493 39.0417 137.618 39.8333 137.785 40.5C137.868 40.6667 138.16 40.8542 138.66 41.0625C139.16 41.2708 139.702 41.4375 140.285 41.5625C140.868 41.6875 141.285 41.75 141.535 41.75C141.66 41.75 141.743 42 141.785 42.5C141.827 43 141.806 43.3542 141.723 43.5625L135.035 43.25L128.223 43.5625ZM190.973 43.75C189.556 43.75 188.16 43.625 186.785 43.375C185.452 43.0833 184.577 42.9375 184.16 42.9375C183.785 42.9375 183.327 43.0625 182.785 43.3125C182.243 43.5208 181.91 43.625 181.785 43.625C181.618 43.625 181.348 43.5625 180.973 43.4375C180.639 43.3125 180.473 43.1667 180.473 43C180.473 42.75 180.598 41.9583 180.848 40.625C181.098 39.25 181.223 37.3542 181.223 34.9375V9.0625C181.223 7.64583 181.098 6.3125 180.848 5.0625C180.681 4.39583 179.618 4.0625 177.66 4.0625H177.098C176.848 4.0625 176.723 3.83333 176.723 3.375C176.723 2.70833 176.848 2.375 177.098 2.375C179.431 2.16667 181.264 1.85417 182.598 1.4375C183.973 1.02083 184.952 0.604167 185.535 0.1875L185.785 0H185.91C186.077 0 186.243 0.125 186.41 0.375C186.577 0.583333 186.681 0.791667 186.723 1C186.264 2.375 186.035 4.1875 186.035 6.4375V17.375C186.035 17.8333 186.098 18.0625 186.223 18.0625C186.264 18.0625 186.285 18.0625 186.285 18.0625C186.327 18.0208 186.368 18 186.41 18C186.993 17.5833 187.889 17.1458 189.098 16.6875C190.306 16.2292 191.368 16 192.285 16C194.952 16 197.243 16.6458 199.16 17.9375C201.077 19.1875 202.535 20.7917 203.535 22.75C204.577 24.7083 205.098 26.7292 205.098 28.8125C205.098 30.8125 204.702 32.7083 203.91 34.5C203.118 36.2917 202.035 37.8958 200.66 39.3125C199.327 40.6875 197.806 41.7708 196.098 42.5625C194.431 43.3542 192.723 43.75 190.973 43.75ZM192.16 41.125C193.743 41.125 195.098 40.6042 196.223 39.5625C197.348 38.5208 198.202 37.1667 198.785 35.5C199.41 33.7917 199.723 32 199.723 30.125C199.723 26.8333 198.848 24.1667 197.098 22.125C195.389 20.0833 193.118 19.0625 190.285 19.0625C189.118 19.0625 188.118 19.3958 187.285 20.0625C186.452 20.6875 186.035 21.6042 186.035 22.8125V37.375C186.035 38.6667 186.639 39.625 187.848 40.25C189.098 40.8333 190.535 41.125 192.16 41.125ZM209.785 43.5625C209.618 43.3958 209.535 43.0417 209.535 42.5C209.535 42 209.618 41.75 209.785 41.75C210.118 41.75 210.577 41.6875 211.16 41.5625C211.743 41.4375 212.285 41.2708 212.785 41.0625C213.285 40.8542 213.556 40.6667 213.598 40.5C213.764 39.9167 213.868 39.25 213.91 38.5C213.993 37.75 214.035 36.9583 214.035 36.125V24.3125C214.035 22.7292 213.743 21.6042 213.16 20.9375C212.743 20.4375 212.243 20.1042 211.66 19.9375C211.118 19.7708 210.618 19.6875 210.16 19.6875C209.743 19.6458 209.535 19.5833 209.535 19.5C209.535 18.5 209.66 17.9792 209.91 17.9375C214.452 17.2292 217.077 16.7708 217.785 16.5625L218.848 16.25C219.014 16.2083 219.118 16.375 219.16 16.75C219.202 17.125 219.202 17.3958 219.16 17.5625L218.785 20.6875C219.535 19.5625 220.556 18.5208 221.848 17.5625C223.181 16.5625 224.493 16.0625 225.785 16.0625C228.202 16.0625 229.827 16.6667 230.66 17.875C230.66 19.3333 230.431 20.3958 229.973 21.0625C229.514 21.7292 228.952 22.0625 228.285 22.0625C227.535 22.0625 226.848 21.7083 226.223 21C225.598 20.2917 224.743 19.9375 223.66 19.9375C222.827 19.9375 222.035 20.2292 221.285 20.8125C220.535 21.3542 219.931 22.0625 219.473 22.9375C219.056 23.7708 218.848 24.6458 218.848 25.5625V34.9375C218.848 36.1458 218.889 37.2083 218.973 38.125C219.056 39.0417 219.181 39.8333 219.348 40.5C219.431 40.6667 219.723 40.8542 220.223 41.0625C220.723 41.2708 221.264 41.4375 221.848 41.5625C222.473 41.6875 222.91 41.75 223.16 41.75C223.285 41.75 223.368 42 223.41 42.5C223.452 43 223.431 43.3542 223.348 43.5625L216.598 43.25L209.785 43.5625ZM246.16 43.75C243.868 43.75 241.764 43.1458 239.848 41.9375C237.931 40.7292 236.389 39.125 235.223 37.125C234.098 35.0833 233.535 32.8125 233.535 30.3125C233.535 27.3958 234.077 24.875 235.16 22.75C236.243 20.625 237.723 19 239.598 17.875C241.473 16.7083 243.577 16.125 245.91 16.125C247.827 16.125 249.514 16.5 250.973 17.25C252.431 17.9583 253.556 18.875 254.348 20C255.098 21.1667 255.639 22.3542 255.973 23.5625C256.348 24.7292 256.535 25.8958 256.535 27.0625C256.535 27.8958 256.41 28.4167 256.16 28.625C255.91 28.7917 255.431 28.875 254.723 28.875H238.973C238.639 28.875 238.473 28.9792 238.473 29.1875C238.473 30.9375 238.827 32.625 239.535 34.25C240.243 35.8333 241.285 37.1458 242.66 38.1875C244.035 39.2292 245.723 39.75 247.723 39.75C249.473 39.75 250.931 39.5 252.098 39C253.306 38.4583 254.181 37.9792 254.723 37.5625L255.16 37.25C255.41 37.25 255.535 37.5208 255.535 38.0625C255.535 38.3542 255.41 38.7292 255.16 39.1875C254.327 40.3542 253.098 41.4167 251.473 42.375C249.848 43.2917 248.077 43.75 246.16 43.75ZM238.973 26.25H251.16C251.368 26.25 251.473 26.0417 251.473 25.625C251.473 24.7083 251.223 23.7083 250.723 22.625C250.264 21.5 249.556 20.5208 248.598 19.6875C247.639 18.8542 246.431 18.4375 244.973 18.4375C243.639 18.4375 242.493 18.8958 241.535 19.8125C240.577 20.6875 239.848 21.7083 239.348 22.875C238.848 24 238.598 24.9792 238.598 25.8125C238.598 26.1042 238.723 26.25 238.973 26.25ZM269.035 44.0625C267.743 44.0625 266.577 43.9167 265.535 43.625C264.493 43.3333 263.223 43.0833 261.723 42.875C261.556 42.4167 261.389 41.7917 261.223 41C261.056 40.2083 260.91 39.375 260.785 38.5C260.702 37.625 260.66 36.9167 260.66 36.375C260.993 36.125 261.243 36 261.41 36C262.035 36 262.368 36.125 262.41 36.375C262.577 37.2083 262.993 38.0417 263.66 38.875C264.327 39.7083 265.139 40.4167 266.098 41C267.056 41.5417 268.035 41.8125 269.035 41.8125C270.368 41.8125 271.452 41.4583 272.285 40.75C273.16 40 273.598 38.9375 273.598 37.5625C273.598 36.1042 273.035 34.8958 271.91 33.9375C271.035 33.2292 270.285 32.7292 269.66 32.4375C269.077 32.1042 268.493 31.8125 267.91 31.5625C267.368 31.2708 266.681 30.875 265.848 30.375C262.598 28.5 260.973 26.2708 260.973 23.6875C260.973 22.1875 261.389 20.875 262.223 19.75C263.056 18.5833 264.16 17.6875 265.535 17.0625C266.952 16.3958 268.452 16.0625 270.035 16.0625C270.493 16.0625 271.014 16.1042 271.598 16.1875C272.181 16.2292 272.827 16.2917 273.535 16.375C274.243 16.5 274.827 16.6042 275.285 16.6875C275.743 16.7708 276.118 16.8333 276.41 16.875C276.868 18.7917 277.118 20.9167 277.16 23.25C277.16 23.4583 276.889 23.5625 276.348 23.5625C275.764 23.5625 275.452 23.4167 275.41 23.125C275.202 21.9583 274.598 20.8542 273.598 19.8125C272.639 18.7708 271.535 18.25 270.285 18.25C267.285 18.25 265.785 19.4792 265.785 21.9375C265.785 22.5625 265.848 23.125 265.973 23.625C266.139 24.0833 266.493 24.5208 267.035 24.9375C268.327 25.9375 269.848 26.9375 271.598 27.9375C273.389 28.9375 274.868 29.875 276.035 30.75C277.785 32.0833 278.66 33.6458 278.66 35.4375C278.66 37.0625 278.223 38.5417 277.348 39.875C276.473 41.1667 275.306 42.1875 273.848 42.9375C272.389 43.6875 270.785 44.0625 269.035 44.0625ZM55.4414 107.562C55.3164 107.438 55.2539 107.125 55.2539 106.625C55.2539 106.042 55.3164 105.75 55.4414 105.75C55.8164 105.75 56.3164 105.688 56.9414 105.562C57.5664 105.396 58.1497 105.208 58.6914 105C59.2747 104.792 59.6289 104.562 59.7539 104.312C60.0456 103.854 60.1914 101.896 60.1914 98.4375V74.8125C60.1914 73.6042 60.1497 72.5417 60.0664 71.625C60.0247 70.7083 59.9206 69.9792 59.7539 69.4375C59.6706 69.1875 59.3372 68.9583 58.7539 68.75C58.2122 68.5417 57.6081 68.375 56.9414 68.25C56.3164 68.125 55.8164 68.0625 55.4414 68.0625C55.2747 68.0625 55.1914 67.8125 55.1914 67.3125C55.1914 66.7708 55.2747 66.4167 55.4414 66.25C56.5247 66.2917 57.6706 66.3333 58.8789 66.375C60.1289 66.375 61.4622 66.375 62.8789 66.375L68.9414 66.3125C70.1497 66.3125 71.1497 66.3125 71.9414 66.3125C72.7331 66.2708 73.3372 66.25 73.7539 66.25C78.2956 66.25 82.1706 67.1875 85.3789 69.0625C88.5872 70.8958 91.0456 73.3333 92.7539 76.375C94.4622 79.4167 95.3164 82.75 95.3164 86.375C95.3164 90.375 94.4414 94 92.6914 97.25C90.9831 100.5 88.5039 103.062 85.2539 104.938C82.0456 106.812 78.1914 107.688 73.6914 107.562L69.2539 107.438C68.0039 107.396 66.8581 107.375 65.8164 107.375C64.7747 107.333 63.8372 107.333 63.0039 107.375L55.4414 107.562ZM74.6914 104.688C84.2747 104.688 89.0664 98.5 89.0664 86.125C89.0664 82.9583 88.5039 80.0833 87.3789 77.5C86.2539 74.9167 84.5872 72.8542 82.3789 71.3125C80.2122 69.7708 77.5039 69 74.2539 69H73.9414C69.4414 69 66.9414 69.3333 66.4414 70C65.8997 70.7083 65.6289 72.0208 65.6289 73.9375V98.6875C65.6289 100.396 65.9414 101.979 66.5664 103.438C66.6497 103.646 67.0039 103.833 67.6289 104C68.2539 104.125 69.0039 104.25 69.8789 104.375C70.7956 104.458 71.6914 104.542 72.5664 104.625C73.4414 104.667 74.1497 104.688 74.6914 104.688ZM100.566 77.0625C99.9831 77.0625 99.5664 76.7083 99.3164 76C100.816 75.125 101.921 74.125 102.629 73C103.379 71.8333 103.754 70.9375 103.754 70.3125C103.754 69.8125 103.546 69.3125 103.129 68.8125C102.712 68.3125 102.275 67.8125 101.816 67.3125C101.4 66.8125 101.191 66.3125 101.191 65.8125C101.191 65.0625 101.608 64.4375 102.441 63.9375C103.275 63.3958 104.212 63.125 105.254 63.125C105.671 63.125 106.087 63.1875 106.504 63.3125C107.087 64.1458 107.379 65.6042 107.379 67.6875C107.379 68.7708 107.15 69.8542 106.691 70.9375C106.275 71.9792 105.754 72.8542 105.129 73.5625C104.254 74.5208 103.358 75.3542 102.441 76.0625C101.525 76.7292 100.9 77.0625 100.566 77.0625ZM110.816 107.562C110.65 107.396 110.566 107.083 110.566 106.625C110.566 106.042 110.65 105.75 110.816 105.75C111.191 105.75 111.691 105.708 112.316 105.625C112.941 105.5 113.525 105.333 114.066 105.125C114.608 104.917 114.921 104.708 115.004 104.5C115.171 103.917 115.275 103.167 115.316 102.25C115.4 101.333 115.441 100.229 115.441 98.9375V74.6875C115.441 73.3958 115.4 72.2917 115.316 71.375C115.275 70.4167 115.171 69.6667 115.004 69.125C114.921 68.875 114.608 68.6667 114.066 68.5C113.525 68.2917 112.941 68.125 112.316 68C111.691 67.875 111.191 67.8125 110.816 67.8125C110.65 67.8125 110.566 67.5417 110.566 67C110.566 66.5 110.65 66.1667 110.816 66C111.191 66 111.816 66.0417 112.691 66.125C113.608 66.1667 114.587 66.2292 115.629 66.3125C116.671 66.3542 117.566 66.375 118.316 66.375C119.65 66.375 120.983 66.3333 122.316 66.25C123.65 66.125 124.733 66.0417 125.566 66C125.65 66.1667 125.671 66.5208 125.629 67.0625C125.629 67.5625 125.566 67.8125 125.441 67.8125C125.191 67.8125 124.754 67.8958 124.129 68.0625C123.504 68.1875 122.921 68.3542 122.379 68.5625C121.837 68.7292 121.525 68.9167 121.441 69.125C121.066 70.5417 120.879 72.4792 120.879 74.9375V84.25L121.004 84.4375C123.046 84.4792 124.858 84.5208 126.441 84.5625C128.025 84.5625 129.379 84.5625 130.504 84.5625C131.712 84.5625 133.087 84.5625 134.629 84.5625C136.171 84.5208 137.879 84.4792 139.754 84.4375C139.837 84.3542 139.879 84.2708 139.879 84.1875V74.6875C139.879 73.3958 139.837 72.2917 139.754 71.375C139.712 70.4167 139.608 69.6667 139.441 69.125C139.358 68.875 139.046 68.6667 138.504 68.5C137.962 68.2917 137.379 68.125 136.754 68C136.129 67.875 135.629 67.8125 135.254 67.8125C135.087 67.8125 135.004 67.5417 135.004 67C135.004 66.5 135.087 66.1667 135.254 66C135.587 66 136.212 66.0417 137.129 66.125C138.046 66.1667 139.025 66.2292 140.066 66.3125C141.15 66.3542 142.066 66.375 142.816 66.375C144.15 66.375 145.462 66.3333 146.754 66.25C148.046 66.125 149.108 66.0417 149.941 66C150.025 66.3333 150.066 66.6458 150.066 66.9375C150.066 67.5208 149.983 67.8125 149.816 67.8125C149.566 67.8125 149.129 67.8958 148.504 68.0625C147.879 68.1875 147.296 68.3542 146.754 68.5625C146.212 68.7292 145.9 68.9167 145.816 69.125C145.65 69.7917 145.525 70.6042 145.441 71.5625C145.358 72.5208 145.316 73.6458 145.316 74.9375V98.6875C145.316 99.9792 145.358 101.104 145.441 102.062C145.525 103.021 145.65 103.833 145.816 104.5C145.9 104.667 146.212 104.854 146.754 105.062C147.296 105.271 147.879 105.438 148.504 105.562C149.129 105.688 149.566 105.75 149.816 105.75C149.983 105.75 150.066 106.062 150.066 106.688C150.066 106.938 150.025 107.229 149.941 107.562C147.858 107.479 146.212 107.417 145.004 107.375C143.837 107.292 143.108 107.25 142.816 107.25L135.254 107.562C135.087 107.396 135.004 107.042 135.004 106.5C135.004 106 135.087 105.75 135.254 105.75C135.629 105.75 136.129 105.708 136.754 105.625C137.379 105.5 137.962 105.333 138.504 105.125C139.046 104.917 139.358 104.708 139.441 104.5C139.608 103.917 139.712 103.167 139.754 102.25C139.837 101.333 139.879 100.229 139.879 98.9375V87.9375L139.754 87.6875C137.796 87.6458 136.046 87.625 134.504 87.625C132.962 87.5833 131.629 87.5625 130.504 87.5625C124.087 87.5625 120.879 87.6667 120.879 87.875V98.6875C120.879 101.104 121.066 103.042 121.441 104.5C121.525 104.667 121.837 104.854 122.379 105.062C122.921 105.271 123.504 105.438 124.129 105.562C124.754 105.688 125.191 105.75 125.441 105.75C125.566 105.75 125.629 106 125.629 106.5C125.671 107 125.65 107.354 125.566 107.562C123.483 107.479 121.837 107.417 120.629 107.375C119.421 107.292 118.65 107.25 118.316 107.25L110.816 107.562ZM168.379 107.812C165.879 107.812 163.587 107.188 161.504 105.938C159.421 104.688 157.754 103 156.504 100.875C155.296 98.75 154.691 96.4167 154.691 93.875C154.691 91.2917 155.275 88.9583 156.441 86.875C157.65 84.7917 159.275 83.1458 161.316 81.9375C163.358 80.6875 165.671 80.0625 168.254 80.0625C170.754 80.0625 173.025 80.6875 175.066 81.9375C177.15 83.1875 178.796 84.8542 180.004 86.9375C181.254 89.0208 181.879 91.3333 181.879 93.875C181.879 96.4167 181.275 98.75 180.066 100.875C178.858 103 177.233 104.688 175.191 105.938C173.191 107.188 170.921 107.812 168.379 107.812ZM168.941 105.375C170.441 105.375 171.754 104.896 172.879 103.938C174.004 102.979 174.879 101.688 175.504 100.062C176.171 98.4375 176.504 96.6667 176.504 94.75C176.504 92.5 176.087 90.4583 175.254 88.625C174.421 86.75 173.316 85.2708 171.941 84.1875C170.608 83.0625 169.15 82.5 167.566 82.5C166.108 82.5 164.796 82.9792 163.629 83.9375C162.504 84.8542 161.629 86.1042 161.004 87.6875C160.379 89.2292 160.066 90.9792 160.066 92.9375C160.066 95.1875 160.462 97.2708 161.254 99.1875C162.087 101.062 163.171 102.562 164.504 103.688C165.879 104.812 167.358 105.375 168.941 105.375ZM162.629 76.625C162.254 76.625 162.066 76.1458 162.066 75.1875C162.15 75.0625 162.608 74.5208 163.441 73.5625C163.858 73.1042 164.212 72.6875 164.504 72.3125C164.837 71.9375 165.15 71.5833 165.441 71.25C165.9 70.6667 166.316 70.1042 166.691 69.5625C167.108 69.0208 167.462 68.4792 167.754 67.9375C168.004 67.5208 168.171 67.3125 168.254 67.3125C168.504 67.3125 168.712 67.5208 168.879 67.9375C169.379 68.7292 169.816 69.4167 170.191 70C170.566 70.5833 170.879 71.0417 171.129 71.375C172.004 72.5 172.775 73.3958 173.441 74.0625C174.15 74.6875 174.504 75.0625 174.504 75.1875C174.504 76.1458 174.358 76.625 174.066 76.625C173.858 76.625 173.4 76.4167 172.691 76C172.025 75.5417 171.275 75 170.441 74.375C169.65 73.7083 168.921 73.0833 168.254 72.5C167.671 73.0833 166.983 73.7083 166.191 74.375C165.4 75 164.671 75.5417 164.004 76C163.337 76.4167 162.879 76.625 162.629 76.625ZM196.566 107.812C194.483 107.812 192.733 107.125 191.316 105.75C189.941 104.375 189.254 102.417 189.254 99.875V84H185.629C185.421 84 185.316 83.5625 185.316 82.6875C185.316 82.4375 185.337 82.2917 185.379 82.25C186.629 81.6667 187.941 80.5625 189.316 78.9375C190.275 77.8125 190.983 76.8333 191.441 76C191.941 75.1667 192.191 74.6667 192.191 74.5C193.441 74.5 194.066 74.6042 194.066 74.8125V81L199.004 81.0625H202.504C202.837 81.0625 203.004 81.25 203.004 81.625C203.004 82.4167 202.796 83.2083 202.379 84H194.066V99.3125C194.066 100.979 194.483 102.312 195.316 103.312C196.191 104.312 197.316 104.812 198.691 104.812C199.983 104.812 201.275 104.417 202.566 103.625C202.691 103.542 202.879 103.729 203.129 104.188C203.379 104.604 203.483 104.833 203.441 104.875C202.816 105.542 201.858 106.208 200.566 106.875C199.275 107.5 197.941 107.812 196.566 107.812ZM218.816 107.75C216.525 107.75 214.421 107.146 212.504 105.938C210.587 104.729 209.046 103.125 207.879 101.125C206.754 99.0833 206.191 96.8125 206.191 94.3125C206.191 91.3958 206.733 88.875 207.816 86.75C208.9 84.625 210.379 83 212.254 81.875C214.129 80.7083 216.233 80.125 218.566 80.125C220.483 80.125 222.171 80.5 223.629 81.25C225.087 81.9583 226.212 82.875 227.004 84C227.754 85.1667 228.296 86.3542 228.629 87.5625C229.004 88.7292 229.191 89.8958 229.191 91.0625C229.191 91.8958 229.066 92.4167 228.816 92.625C228.566 92.7917 228.087 92.875 227.379 92.875H211.629C211.296 92.875 211.129 92.9792 211.129 93.1875C211.129 94.9375 211.483 96.625 212.191 98.25C212.9 99.8333 213.941 101.146 215.316 102.188C216.691 103.229 218.379 103.75 220.379 103.75C222.129 103.75 223.587 103.5 224.754 103C225.962 102.458 226.837 101.979 227.379 101.562L227.816 101.25C228.066 101.25 228.191 101.521 228.191 102.062C228.191 102.354 228.066 102.729 227.816 103.188C226.983 104.354 225.754 105.417 224.129 106.375C222.504 107.292 220.733 107.75 218.816 107.75ZM211.629 90.25H223.816C224.025 90.25 224.129 90.0417 224.129 89.625C224.129 88.7083 223.879 87.7083 223.379 86.625C222.921 85.5 222.212 84.5208 221.254 83.6875C220.296 82.8542 219.087 82.4375 217.629 82.4375C216.296 82.4375 215.15 82.8958 214.191 83.8125C213.233 84.6875 212.504 85.7083 212.004 86.875C211.504 88 211.254 88.9792 211.254 89.8125C211.254 90.1042 211.379 90.25 211.629 90.25ZM241.691 108.062C240.4 108.062 239.233 107.917 238.191 107.625C237.15 107.333 235.879 107.083 234.379 106.875C234.212 106.417 234.046 105.792 233.879 105C233.712 104.208 233.566 103.375 233.441 102.5C233.358 101.625 233.316 100.917 233.316 100.375C233.65 100.125 233.9 100 234.066 100C234.691 100 235.025 100.125 235.066 100.375C235.233 101.208 235.65 102.042 236.316 102.875C236.983 103.708 237.796 104.417 238.754 105C239.712 105.542 240.691 105.812 241.691 105.812C243.025 105.812 244.108 105.458 244.941 104.75C245.816 104 246.254 102.938 246.254 101.562C246.254 100.104 245.691 98.8958 244.566 97.9375C243.691 97.2292 242.941 96.7292 242.316 96.4375C241.733 96.1042 241.15 95.8125 240.566 95.5625C240.025 95.2708 239.337 94.875 238.504 94.375C235.254 92.5 233.629 90.2708 233.629 87.6875C233.629 86.1875 234.046 84.875 234.879 83.75C235.712 82.5833 236.816 81.6875 238.191 81.0625C239.608 80.3958 241.108 80.0625 242.691 80.0625C243.15 80.0625 243.671 80.1042 244.254 80.1875C244.837 80.2292 245.483 80.2917 246.191 80.375C246.9 80.5 247.483 80.6042 247.941 80.6875C248.4 80.7708 248.775 80.8333 249.066 80.875C249.525 82.7917 249.775 84.9167 249.816 87.25C249.816 87.4583 249.546 87.5625 249.004 87.5625C248.421 87.5625 248.108 87.4167 248.066 87.125C247.858 85.9583 247.254 84.8542 246.254 83.8125C245.296 82.7708 244.191 82.25 242.941 82.25C239.941 82.25 238.441 83.4792 238.441 85.9375C238.441 86.5625 238.504 87.125 238.629 87.625C238.796 88.0833 239.15 88.5208 239.691 88.9375C240.983 89.9375 242.504 90.9375 244.254 91.9375C246.046 92.9375 247.525 93.875 248.691 94.75C250.441 96.0833 251.316 97.6458 251.316 99.4375C251.316 101.062 250.879 102.542 250.004 103.875C249.129 105.167 247.962 106.188 246.504 106.938C245.046 107.688 243.441 108.062 241.691 108.062ZM23.6801 142.259C24.2227 142.259 24.4201 142.382 24.2721 142.629C24.1241 142.826 23.9021 142.925 23.6061 142.925C22.9647 142.925 22.1261 143.122 21.0901 143.517C20.1034 143.862 19.1167 144.405 18.1301 145.145C17.1434 145.836 16.3047 146.724 15.6141 147.809C14.9234 148.894 14.5781 150.177 14.5781 151.657C14.5781 153.482 15.0221 155.036 15.9101 156.319C16.7981 157.602 18.1547 158.588 19.9801 159.279C21.8054 159.92 24.0747 160.241 26.7881 160.241C29.2054 160.241 31.7954 159.797 34.5581 158.909C37.3701 157.972 40.1327 156.738 42.8461 155.209C45.6087 153.63 48.1247 151.879 50.3941 149.955C52.6634 148.031 54.4641 146.058 55.7961 144.035C57.1774 141.963 57.8681 139.99 57.8681 138.115C57.8681 137.572 57.5721 137.03 56.9801 136.487C56.4374 135.944 55.6727 135.673 54.6861 135.673C52.4661 135.673 50.4187 136.24 48.5441 137.375C46.6694 138.51 44.8687 140.088 43.1421 142.111C41.4154 144.084 39.6641 146.378 37.8881 148.993C36.1614 151.608 34.3361 154.395 32.4121 157.355C31.1787 159.23 29.7234 161.203 28.0461 163.275C26.4181 165.298 24.5434 167.222 22.4221 169.047C20.3007 170.823 17.9081 172.278 15.2441 173.413C12.6294 174.498 9.69407 175.041 6.43807 175.041C2.14607 175.041 6.97523e-05 174.153 6.97523e-05 172.377C6.97523e-05 171.834 0.542737 171.267 1.62807 170.675C2.66407 170.034 4.24274 169.713 6.36407 169.713C8.38674 169.713 10.1627 169.96 11.6921 170.453C13.2214 170.897 14.7754 171.415 16.3541 172.007C17.9821 172.599 19.8814 173.142 22.0521 173.635C24.2227 174.079 26.9607 174.301 30.2661 174.301C31.7461 174.301 33.3741 174.079 35.1501 173.635C36.9261 173.142 38.2334 172.352 39.0721 171.267C39.2694 171.02 39.4667 170.922 39.6641 170.971C39.8614 171.02 39.8367 171.242 39.5901 171.637C38.9981 172.476 37.8881 173.364 36.2601 174.301C34.6814 175.189 32.6094 175.633 30.0441 175.633C28.0707 175.633 25.9987 175.411 23.8281 174.967C21.6574 174.523 19.5114 174.005 17.3901 173.413C15.2687 172.772 13.2707 172.229 11.3961 171.785C9.5214 171.341 7.86874 171.119 6.43807 171.119C4.7114 171.119 3.35474 171.267 2.36807 171.563C1.33207 171.81 0.81407 172.081 0.81407 172.377C0.81407 172.92 1.35674 173.388 2.44207 173.783C3.47807 174.128 4.83474 174.301 6.51207 174.301C9.17607 174.301 11.5441 173.808 13.6161 172.821C15.6881 171.785 17.5874 170.428 19.3141 168.751C21.0407 167.024 22.6687 165.076 24.1981 162.905C25.7767 160.734 27.3554 158.514 28.9341 156.245C31.0061 153.186 33.0534 150.374 35.0761 147.809C37.0987 145.244 39.1707 142.999 41.2921 141.075C43.4134 139.151 45.6334 137.671 47.9521 136.635C50.3201 135.55 52.8607 135.007 55.5741 135.007C56.5607 135.007 57.4981 135.278 58.3861 135.821C59.3234 136.364 59.7921 137.252 59.7921 138.485C59.7921 140.261 59.0521 142.185 57.5721 144.257C56.1414 146.28 54.2174 148.278 51.8001 150.251C49.4321 152.224 46.7681 154.025 43.8081 155.653C40.8974 157.281 37.9621 158.588 35.0021 159.575C32.0421 160.512 29.2794 160.981 26.7141 160.981C23.1127 160.981 20.2761 160.537 18.2041 159.649C16.1321 158.761 14.6521 157.651 13.7641 156.319C12.9254 154.987 12.5061 153.68 12.5061 152.397C12.5061 150.769 13.0241 149.19 14.0601 147.661C15.1454 146.082 16.5267 144.8 18.2041 143.813C19.9307 142.777 21.7561 142.259 23.6801 142.259ZM50.9907 175.041C48.672 175.041 47.1427 174.523 46.4027 173.487C45.6627 172.402 45.2927 171.267 45.2927 170.083C45.2927 168.06 45.8107 166.186 46.8467 164.459C47.8827 162.683 49.2147 161.104 50.8427 159.723C52.4707 158.342 54.148 157.281 55.8747 156.541C57.6507 155.752 59.2294 155.357 60.6107 155.357C61.5974 155.357 62.3867 155.505 62.9787 155.801C63.5707 156.048 63.8667 156.59 63.8667 157.429C63.8667 158.218 63.398 159.057 62.4607 159.945C61.5234 160.833 60.3394 161.696 58.9087 162.535C57.478 163.324 55.9734 164.064 54.3947 164.755C52.8654 165.396 51.4594 165.914 50.1767 166.309C48.894 166.704 47.9567 166.901 47.3647 166.901C47.3647 166.901 47.3647 166.778 47.3647 166.531C47.3647 166.235 47.3647 166.087 47.3647 166.087C47.8087 166.136 48.5734 165.988 49.6587 165.643C50.7934 165.298 52.0514 164.854 53.4327 164.311C54.814 163.719 56.146 163.053 57.4287 162.313C58.7607 161.573 59.846 160.784 60.6847 159.945C61.5727 159.106 62.0167 158.292 62.0167 157.503C62.0167 157.108 61.8934 156.763 61.6467 156.467C61.4494 156.171 61.0794 156.023 60.5367 156.023C59.7474 156.023 58.7854 156.418 57.6507 157.207C56.5654 157.947 55.4554 158.934 54.3207 160.167C53.186 161.4 52.1254 162.708 51.1387 164.089C50.152 165.47 49.338 166.802 48.6967 168.085C48.1047 169.318 47.8087 170.354 47.8087 171.193C47.8087 172.18 48.1047 172.92 48.6967 173.413C49.2887 173.906 50.152 174.153 51.2867 174.153C53.26 174.153 55.11 173.684 56.8367 172.747C58.6127 171.76 60.216 170.626 61.6467 169.343C63.0774 168.011 64.286 166.778 65.2727 165.643C66.2594 164.459 66.9254 163.694 67.2707 163.349C67.2707 163.349 67.3447 163.423 67.4927 163.571C67.69 163.719 67.7887 163.793 67.7887 163.793C67.4434 164.188 66.7774 164.977 65.7907 166.161C64.804 167.345 63.5707 168.628 62.0907 170.009C60.6107 171.39 58.9334 172.574 57.0587 173.561C55.184 174.548 53.1614 175.041 50.9907 175.041ZM64.7287 176.077C63.002 176.077 61.6947 175.756 60.8067 175.115C59.9187 174.474 59.4747 173.61 59.4747 172.525C59.4747 171.736 59.746 171.045 60.2887 170.453C60.782 169.812 61.374 169.318 62.0647 168.973C62.7553 168.578 63.298 168.381 63.6927 168.381C64.2353 168.381 64.6053 168.504 64.8027 168.751C64.9507 168.948 65.0247 169.17 65.0247 169.417C65.0247 169.812 64.8027 170.132 64.3587 170.379C63.8653 170.626 63.4707 170.749 63.1747 170.749C62.8293 170.749 62.5333 170.65 62.2867 170.453C61.9907 170.206 61.8427 170.083 61.8427 170.083C61.596 170.132 61.2507 170.404 60.8067 170.897C60.3627 171.39 60.1407 171.933 60.1407 172.525C60.1407 173.117 60.4613 173.684 61.1027 174.227C61.744 174.77 62.78 175.041 64.2107 175.041C65.6907 175.041 67.0967 174.548 68.4287 173.561C69.81 172.574 70.9447 171.316 71.8327 169.787C72.7207 168.258 73.1647 166.704 73.1647 165.125C73.1647 164.582 73.1647 163.867 73.1647 162.979C73.1647 162.042 73.1647 161.277 73.1647 160.685C73.1647 159.945 73.288 159.106 73.5347 158.169C73.7813 157.182 74.0527 156.27 74.3487 155.431C74.694 154.592 74.9653 154.074 75.1627 153.877C75.5573 153.532 75.8533 153.433 76.0507 153.581C76.248 153.729 76.2973 153.877 76.1987 154.025C76.1493 154.074 75.8287 154.469 75.2367 155.209C74.6447 155.9 73.9047 156.763 73.0167 157.799C72.1287 158.835 71.2407 159.871 70.3527 160.907C69.4647 161.943 68.6753 162.856 67.9847 163.645C67.3433 164.434 66.9733 164.903 66.8747 165.051C66.628 165.396 66.406 165.47 66.2087 165.273C66.0113 165.076 66.0607 164.829 66.3567 164.533C66.8993 163.842 67.5653 163.028 68.3547 162.091C69.1933 161.104 70.032 160.142 70.8707 159.205C71.7093 158.268 72.4247 157.478 73.0167 156.837C73.658 156.146 74.0033 155.752 74.0527 155.653C74.2007 155.456 74.324 155.11 74.4227 154.617C74.5707 154.124 74.7433 153.655 74.9407 153.211C75.1873 152.767 75.4833 152.545 75.8287 152.545C76.6673 152.545 77.0867 152.841 77.0867 153.433C77.0867 153.877 76.7413 154.42 76.0507 155.061C75.4093 155.702 75.0393 156.22 74.9407 156.615C74.7927 157.207 74.7927 158.046 74.9407 159.131C75.138 160.167 75.3353 161.351 75.5327 162.683C75.7793 164.015 75.9027 165.421 75.9027 166.901C75.9027 168.874 75.508 170.478 74.7187 171.711C73.9293 172.895 72.9427 173.808 71.7587 174.449C70.5747 175.09 69.3413 175.51 68.0587 175.707C66.8253 175.954 65.7153 176.077 64.7287 176.077ZM76.1247 170.971C74.842 170.971 74.0033 170.724 73.6087 170.231C73.2633 169.738 73.14 169.17 73.2387 168.529C73.3867 167.838 73.5593 167.222 73.7567 166.679L74.4967 166.753C74.3487 167.246 74.2007 167.764 74.0527 168.307C73.954 168.85 74.028 169.318 74.2747 169.713C74.5213 170.108 75.1627 170.305 76.1987 170.305C76.9387 170.305 77.7773 169.96 78.7147 169.269C79.652 168.578 80.5647 167.74 81.4527 166.753C82.39 165.766 83.1793 164.804 83.8207 163.867L84.4867 164.385C83.8453 165.174 83.056 166.087 82.1187 167.123C81.2307 168.159 80.2687 169.072 79.2327 169.861C78.1967 170.601 77.1607 170.971 76.1247 170.971ZM107.382 175.115C105.26 175.115 103.706 174.646 102.72 173.709C101.733 172.772 101.24 171.81 101.24 170.823C101.24 170.083 101.486 169.54 101.98 169.195C102.424 168.8 102.966 168.603 103.608 168.603C104.249 168.603 104.693 168.751 104.94 169.047C105.186 169.294 105.31 169.59 105.31 169.935C105.31 170.428 105.112 170.774 104.718 170.971C104.323 171.168 103.928 171.267 103.534 171.267C103.188 171.267 102.942 171.242 102.794 171.193C102.596 171.144 102.448 171.094 102.35 171.045C102.35 171.933 102.794 172.722 103.682 173.413C104.52 174.054 105.655 174.375 107.086 174.375C109.108 174.375 111.156 173.709 113.228 172.377C115.3 170.996 117.298 169.318 119.222 167.345C121.195 165.322 123.07 163.275 124.846 161.203C126.622 159.131 128.225 157.38 129.656 155.949C131.678 153.926 133.775 151.805 135.946 149.585C138.116 147.365 140.386 145.244 142.754 143.221C145.171 141.198 147.687 139.472 150.302 138.041C152.916 136.561 155.654 135.599 158.516 135.155C159.206 135.056 159.601 135.106 159.7 135.303C159.848 135.451 159.724 135.574 159.33 135.673C156.616 136.166 154.076 137.079 151.708 138.411C149.389 139.694 147.095 141.396 144.826 143.517C142.606 145.589 140.287 148.08 137.87 150.991C135.502 153.852 132.912 157.108 130.1 160.759C128.866 162.387 127.436 164.04 125.808 165.717C124.18 167.394 122.379 168.948 120.406 170.379C118.432 171.81 116.36 172.969 114.19 173.857C112.019 174.696 109.75 175.115 107.382 175.115ZM131.062 175.115C127.312 175.115 125.438 174.079 125.438 172.007C125.438 170.774 125.931 169.565 126.918 168.381C127.904 167.148 129.162 166.013 130.692 164.977C132.27 163.941 133.898 163.127 135.576 162.535C137.253 161.943 138.782 161.672 140.164 161.721C140.46 161.721 140.657 161.844 140.756 162.091C140.854 162.288 140.657 162.387 140.164 162.387C138.881 162.387 137.45 162.683 135.872 163.275C134.293 163.818 132.764 164.558 131.284 165.495C129.853 166.432 128.669 167.468 127.732 168.603C126.794 169.738 126.326 170.872 126.326 172.007C126.326 172.846 126.696 173.438 127.436 173.783C128.176 174.128 129.064 174.301 130.1 174.301C131.58 174.301 133.084 173.906 134.614 173.117C136.143 172.328 137.549 171.242 138.832 169.861C140.164 168.48 141.224 166.901 142.014 165.125C142.803 163.349 143.198 161.499 143.198 159.575C143.198 158.44 142.877 157.528 142.236 156.837C141.644 156.146 140.78 155.801 139.646 155.801C138.511 155.801 137.598 155.9 136.908 156.097C136.217 156.294 135.872 156.516 135.872 156.763C135.872 157.01 135.995 157.182 136.242 157.281C136.538 157.38 137.056 157.429 137.796 157.429C139.226 157.429 140.756 157.034 142.384 156.245C144.061 155.456 145.64 154.37 147.12 152.989C148.649 151.608 149.882 150.054 150.82 148.327C151.806 146.6 152.3 144.8 152.3 142.925C152.3 141.692 151.954 140.458 151.264 139.225C150.573 137.942 149.315 136.882 147.49 136.043C145.664 135.155 143.025 134.711 139.572 134.711C136.71 134.711 133.948 135.204 131.284 136.191C128.669 137.128 126.227 138.362 123.958 139.891C121.738 141.42 119.764 143.048 118.038 144.775C116.36 146.502 115.053 148.179 114.116 149.807C113.178 151.386 112.71 152.718 112.71 153.803C112.71 154.642 113.006 155.456 113.598 156.245C114.19 156.985 115.324 157.355 117.002 157.355C118.63 157.355 120.406 156.862 122.33 155.875C124.303 154.839 126.178 153.482 127.954 151.805C129.779 150.078 131.308 148.13 132.542 145.959C133.824 143.739 134.589 141.445 134.836 139.077C134.934 138.485 135.082 138.214 135.28 138.263C135.477 138.312 135.6 138.559 135.65 139.003C135.798 141.272 135.329 143.542 134.244 145.811C133.208 148.031 131.777 150.078 129.952 151.953C128.126 153.778 126.104 155.234 123.884 156.319C121.664 157.404 119.468 157.947 117.298 157.947C115.423 157.947 114.042 157.602 113.154 156.911C112.315 156.22 111.896 155.036 111.896 153.359C111.896 151.484 112.636 149.437 114.116 147.217C115.596 144.997 117.618 142.9 120.184 140.927C122.798 138.904 125.758 137.276 129.064 136.043C132.418 134.76 135.97 134.119 139.72 134.119C143.518 134.119 146.528 134.588 148.748 135.525C151.017 136.462 152.645 137.696 153.632 139.225C154.668 140.754 155.186 142.432 155.186 144.257C155.186 146.23 154.569 148.08 153.336 149.807C152.152 151.484 150.622 152.964 148.748 154.247C146.922 155.53 145.048 156.541 143.124 157.281C141.249 157.972 139.646 158.317 138.314 158.317C136.883 158.317 135.872 158.194 135.28 157.947C134.737 157.7 134.466 157.38 134.466 156.985C134.466 156.492 134.959 156.072 135.946 155.727C136.982 155.382 138.19 155.209 139.572 155.209C140.608 155.209 141.644 155.431 142.68 155.875C143.716 156.319 144.554 157.108 145.196 158.243C145.886 159.378 146.232 160.956 146.232 162.979C146.232 164.459 145.763 165.939 144.826 167.419C143.938 168.85 142.754 170.157 141.274 171.341C139.794 172.476 138.166 173.388 136.39 174.079C134.614 174.77 132.838 175.115 131.062 175.115ZM152.731 164.681C152.534 164.878 152.386 164.903 152.287 164.755C152.189 164.558 152.164 164.36 152.213 164.163C153.052 163.324 153.866 162.338 154.655 161.203C155.494 160.068 156.185 159.008 156.727 158.021C157.319 157.034 157.665 156.368 157.763 156.023C157.862 156.023 158.01 155.949 158.207 155.801C158.454 155.653 158.676 155.604 158.873 155.653C158.824 155.998 158.75 156.319 158.651 156.615C158.602 156.911 158.775 157.182 159.169 157.429C159.564 157.676 160.378 157.922 161.611 158.169C162.845 158.416 164.719 158.687 167.235 158.983C167.482 159.032 167.655 159.131 167.753 159.279C167.901 159.378 167.827 159.55 167.531 159.797C166.594 160.537 165.558 161.474 164.423 162.609C163.289 163.744 162.179 164.952 161.093 166.235C160.057 167.468 159.194 168.677 158.503 169.861C157.862 171.045 157.541 172.032 157.541 172.821C157.541 173.709 157.936 174.153 158.725 174.153C159.712 174.153 160.822 173.758 162.055 172.969C163.338 172.18 164.621 171.218 165.903 170.083C167.186 168.899 168.37 167.715 169.455 166.531C170.59 165.298 171.527 164.286 172.267 163.497L172.859 163.941C172.169 164.632 171.281 165.594 170.195 166.827C169.11 168.06 167.877 169.318 166.495 170.601C165.163 171.834 163.733 172.895 162.203 173.783C160.674 174.622 159.095 175.041 157.467 175.041C156.53 175.041 155.691 174.819 154.951 174.375C154.211 173.98 153.841 173.24 153.841 172.155C153.841 171.119 154.285 170.034 155.173 168.899C156.061 167.764 157.171 166.63 158.503 165.495C159.835 164.311 161.217 163.201 162.647 162.165C164.127 161.08 165.435 160.093 166.569 159.205L167.087 159.871C166.594 159.674 165.731 159.501 164.497 159.353C163.264 159.156 161.981 158.909 160.649 158.613C159.317 158.268 158.158 157.824 157.171 157.281C156.234 156.738 155.765 155.998 155.765 155.061C155.765 154.568 155.963 153.976 156.357 153.285C156.801 152.545 157.393 152.175 158.133 152.175C158.824 152.175 159.293 152.323 159.539 152.619C159.786 152.866 159.909 153.211 159.909 153.655C159.909 153.951 159.663 154.568 159.169 155.505C158.676 156.393 158.059 157.454 157.319 158.687C156.579 159.871 155.79 161.006 154.951 162.091C154.162 163.176 153.422 164.04 152.731 164.681ZM178.757 155.579C179.201 155.776 179.867 155.875 180.755 155.875C181.692 155.875 182.482 155.826 183.123 155.727C181.89 157.207 180.508 158.81 178.979 160.537C177.45 162.214 175.994 163.892 174.613 165.569C173.232 167.246 172.097 168.751 171.209 170.083C170.272 171.415 169.803 172.451 169.803 173.191C169.803 173.684 169.951 174.005 170.247 174.153C170.494 174.301 170.814 174.375 171.209 174.375C172.393 174.375 173.7 173.906 175.131 172.969C176.611 172.032 178.116 170.823 179.645 169.343C181.224 167.814 182.753 166.186 184.233 164.459C185.713 162.732 187.07 161.104 188.303 159.575C189.586 157.996 190.671 156.689 191.559 155.653C192.052 155.801 192.743 155.875 193.631 155.875C194.519 155.875 195.284 155.826 195.925 155.727C194.642 157.355 193.212 159.082 191.633 160.907C190.054 162.683 188.525 164.41 187.045 166.087C185.614 167.715 184.43 169.17 183.493 170.453C182.556 171.686 182.087 172.624 182.087 173.265C182.087 173.561 182.21 173.808 182.457 174.005C182.753 174.153 183.148 174.227 183.641 174.227C184.726 174.227 185.886 173.857 187.119 173.117C188.402 172.328 189.66 171.366 190.893 170.231C192.176 169.047 193.384 167.863 194.519 166.679C195.703 165.446 196.714 164.36 197.553 163.423L198.145 163.941C197.356 164.78 196.369 165.84 195.185 167.123C194.05 168.356 192.792 169.59 191.411 170.823C190.079 172.007 188.722 173.018 187.341 173.857C185.96 174.646 184.652 175.041 183.419 175.041C182.728 175.041 182.087 174.844 181.495 174.449C180.903 174.054 180.607 173.339 180.607 172.303C180.607 171.366 180.829 170.404 181.273 169.417C181.717 168.381 182.186 167.493 182.679 166.753C183.172 165.964 183.468 165.495 183.567 165.347L184.085 165.569C183.641 166.21 182.926 167.074 181.939 168.159C181.002 169.195 179.892 170.256 178.609 171.341C177.376 172.377 176.068 173.265 174.687 174.005C173.306 174.696 171.949 175.041 170.617 175.041C168.496 175.041 167.435 173.931 167.435 171.711C167.435 170.774 167.83 169.664 168.619 168.381C169.408 167.049 170.42 165.643 171.653 164.163C172.837 162.634 174.07 161.129 175.353 159.649C176.636 158.169 177.77 156.812 178.757 155.579ZM204.864 155.579C205.555 155.776 206.27 155.875 207.01 155.875C207.75 155.826 208.515 155.776 209.304 155.727C207.972 157.01 206.467 158.539 204.79 160.315C203.162 162.042 201.583 163.793 200.054 165.569C198.574 167.296 197.341 168.85 196.354 170.231C195.367 171.563 194.874 172.476 194.874 172.969C194.874 173.314 194.997 173.635 195.244 173.931C195.491 174.178 195.91 174.301 196.502 174.301C198.229 174.301 200.005 173.783 201.83 172.747C203.705 171.711 205.505 170.404 207.232 168.825C209.008 167.197 210.661 165.52 212.19 163.793C213.719 162.017 215.051 160.414 216.186 158.983C217.37 157.503 218.233 156.418 218.776 155.727C219.171 155.826 219.812 155.875 220.7 155.875C221.637 155.875 222.279 155.85 222.624 155.801C217.543 161.918 213.078 167.542 209.23 172.673C205.431 177.754 202.003 182.12 198.944 185.771C195.885 189.471 192.975 192.332 190.212 194.355C187.4 196.378 184.465 197.389 181.406 197.389C179.531 197.389 178.594 196.649 178.594 195.169C178.594 194.084 179.285 192.949 180.666 191.765C181.998 190.581 183.799 189.348 186.068 188.065C188.337 186.832 190.853 185.598 193.616 184.365C196.379 183.132 199.191 181.948 202.052 180.813C205.801 179.333 208.885 177.705 211.302 175.929C213.769 174.202 215.915 172.303 217.74 170.231C219.615 168.159 221.514 165.89 223.438 163.423L224.03 163.793C222.057 166.309 220.108 168.628 218.184 170.749C216.26 172.821 214.065 174.745 211.598 176.521C209.131 178.297 206.023 179.95 202.274 181.479C199.462 182.614 196.724 183.773 194.06 184.957C191.347 186.19 188.905 187.374 186.734 188.509C184.514 189.693 182.763 190.852 181.48 191.987C180.148 193.122 179.482 194.182 179.482 195.169C179.482 195.761 179.679 196.131 180.074 196.279C180.469 196.476 180.987 196.575 181.628 196.575C183.157 196.575 184.81 195.983 186.586 194.799C188.313 193.615 190.138 192.012 192.062 189.989C193.986 187.966 195.935 185.672 197.908 183.107C199.931 180.591 201.978 177.976 204.05 175.263C206.122 172.55 208.219 169.91 210.34 167.345L210.044 167.197C209.945 167.345 209.6 167.715 209.008 168.307C208.416 168.899 207.651 169.565 206.714 170.305C205.777 171.045 204.716 171.785 203.532 172.525C202.348 173.265 201.09 173.882 199.758 174.375C198.475 174.819 197.168 175.041 195.836 175.041C194.899 175.041 194.183 174.819 193.69 174.375C193.147 173.98 192.876 173.413 192.876 172.673C192.876 171.489 193.271 170.157 194.06 168.677C194.849 167.148 195.885 165.594 197.168 164.015C198.401 162.436 199.709 160.907 201.09 159.427C202.471 157.947 203.729 156.664 204.864 155.579ZM226.885 175.041C224.567 175.041 223.037 174.523 222.297 173.487C221.557 172.402 221.187 171.267 221.187 170.083C221.187 168.06 221.705 166.186 222.741 164.459C223.777 162.683 225.109 161.104 226.737 159.723C228.365 158.342 230.043 157.281 231.769 156.541C233.545 155.752 235.124 155.357 236.505 155.357C237.492 155.357 238.281 155.505 238.873 155.801C239.465 156.048 239.761 156.59 239.761 157.429C239.761 158.218 239.293 159.057 238.355 159.945C237.418 160.833 236.234 161.696 234.803 162.535C233.373 163.324 231.868 164.064 230.289 164.755C228.76 165.396 227.354 165.914 226.071 166.309C224.789 166.704 223.851 166.901 223.259 166.901C223.259 166.901 223.259 166.778 223.259 166.531C223.259 166.235 223.259 166.087 223.259 166.087C223.703 166.136 224.468 165.988 225.553 165.643C226.688 165.298 227.946 164.854 229.327 164.311C230.709 163.719 232.041 163.053 233.323 162.313C234.655 161.573 235.741 160.784 236.579 159.945C237.467 159.106 237.911 158.292 237.911 157.503C237.911 157.108 237.788 156.763 237.541 156.467C237.344 156.171 236.974 156.023 236.431 156.023C235.642 156.023 234.68 156.418 233.545 157.207C232.46 157.947 231.35 158.934 230.215 160.167C229.081 161.4 228.02 162.708 227.033 164.089C226.047 165.47 225.233 166.802 224.591 168.085C223.999 169.318 223.703 170.354 223.703 171.193C223.703 172.18 223.999 172.92 224.591 173.413C225.183 173.906 226.047 174.153 227.181 174.153C229.155 174.153 231.005 173.684 232.731 172.747C234.507 171.76 236.111 170.626 237.541 169.343C238.972 168.011 240.181 166.778 241.167 165.643C242.154 164.459 242.82 163.694 243.165 163.349C243.165 163.349 243.239 163.423 243.387 163.571C243.585 163.719 243.683 163.793 243.683 163.793C243.338 164.188 242.672 164.977 241.685 166.161C240.699 167.345 239.465 168.628 237.985 170.009C236.505 171.39 234.828 172.574 232.953 173.561C231.079 174.548 229.056 175.041 226.885 175.041ZM240.723 150.177C240.279 150.029 239.638 149.708 238.799 149.215C238.01 148.672 237.196 148.031 236.357 147.291C235.519 146.551 234.803 145.811 234.211 145.071C233.619 144.282 233.323 143.542 233.323 142.851C233.323 142.604 233.422 142.308 233.619 141.963C233.817 141.568 234.088 141.371 234.433 141.371C235.075 141.371 235.494 141.568 235.691 141.963C235.938 142.308 236.111 142.752 236.209 143.295C236.555 144.972 237.097 146.255 237.837 147.143C238.627 147.982 239.638 148.746 240.871 149.437C241.266 149.634 241.414 149.832 241.315 150.029C241.217 150.226 241.019 150.276 240.723 150.177ZM242.919 164.681C242.722 164.878 242.574 164.903 242.475 164.755C242.376 164.558 242.352 164.36 242.401 164.163C243.24 163.324 244.054 162.338 244.843 161.203C245.682 160.068 246.372 159.008 246.915 158.021C247.507 157.034 247.852 156.368 247.951 156.023C248.05 156.023 248.198 155.949 248.395 155.801C248.642 155.653 248.864 155.604 249.061 155.653C249.012 155.998 248.938 156.319 248.839 156.615C248.79 156.911 248.962 157.182 249.357 157.429C249.752 157.676 250.566 157.922 251.799 158.169C253.032 158.416 254.907 158.687 257.423 158.983C257.67 159.032 257.842 159.131 257.941 159.279C258.089 159.378 258.015 159.55 257.719 159.797C256.782 160.537 255.746 161.474 254.611 162.609C253.476 163.744 252.366 164.952 251.281 166.235C250.245 167.468 249.382 168.677 248.691 169.861C248.05 171.045 247.729 172.032 247.729 172.821C247.729 173.709 248.124 174.153 248.913 174.153C249.9 174.153 251.01 173.758 252.243 172.969C253.526 172.18 254.808 171.218 256.091 170.083C257.374 168.899 258.558 167.715 259.643 166.531C260.778 165.298 261.715 164.286 262.455 163.497L263.047 163.941C262.356 164.632 261.468 165.594 260.383 166.827C259.298 168.06 258.064 169.318 256.683 170.601C255.351 171.834 253.92 172.895 252.391 173.783C250.862 174.622 249.283 175.041 247.655 175.041C246.718 175.041 245.879 174.819 245.139 174.375C244.399 173.98 244.029 173.24 244.029 172.155C244.029 171.119 244.473 170.034 245.361 168.899C246.249 167.764 247.359 166.63 248.691 165.495C250.023 164.311 251.404 163.201 252.835 162.165C254.315 161.08 255.622 160.093 256.757 159.205L257.275 159.871C256.782 159.674 255.918 159.501 254.685 159.353C253.452 159.156 252.169 158.909 250.837 158.613C249.505 158.268 248.346 157.824 247.359 157.281C246.422 156.738 245.953 155.998 245.953 155.061C245.953 154.568 246.15 153.976 246.545 153.285C246.989 152.545 247.581 152.175 248.321 152.175C249.012 152.175 249.48 152.323 249.727 152.619C249.974 152.866 250.097 153.211 250.097 153.655C250.097 153.951 249.85 154.568 249.357 155.505C248.864 156.393 248.247 157.454 247.507 158.687C246.767 159.871 245.978 161.006 245.139 162.091C244.35 163.176 243.61 164.04 242.919 164.681ZM265.836 175.041C263.518 175.041 261.988 174.523 261.248 173.487C260.508 172.402 260.138 171.267 260.138 170.083C260.138 168.06 260.656 166.186 261.692 164.459C262.728 162.683 264.06 161.104 265.688 159.723C267.316 158.342 268.994 157.281 270.72 156.541C272.496 155.752 274.075 155.357 275.456 155.357C276.443 155.357 277.232 155.505 277.824 155.801C278.416 156.048 278.712 156.59 278.712 157.429C278.712 158.218 278.244 159.057 277.306 159.945C276.369 160.833 275.185 161.696 273.754 162.535C272.324 163.324 270.819 164.064 269.24 164.755C267.711 165.396 266.305 165.914 265.022 166.309C263.74 166.704 262.802 166.901 262.21 166.901C262.21 166.901 262.21 166.778 262.21 166.531C262.21 166.235 262.21 166.087 262.21 166.087C262.654 166.136 263.419 165.988 264.504 165.643C265.639 165.298 266.897 164.854 268.278 164.311C269.66 163.719 270.992 163.053 272.274 162.313C273.606 161.573 274.692 160.784 275.53 159.945C276.418 159.106 276.862 158.292 276.862 157.503C276.862 157.108 276.739 156.763 276.492 156.467C276.295 156.171 275.925 156.023 275.382 156.023C274.593 156.023 273.631 156.418 272.496 157.207C271.411 157.947 270.301 158.934 269.166 160.167C268.032 161.4 266.971 162.708 265.984 164.089C264.998 165.47 264.184 166.802 263.542 168.085C262.95 169.318 262.654 170.354 262.654 171.193C262.654 172.18 262.95 172.92 263.542 173.413C264.134 173.906 264.998 174.153 266.132 174.153C268.106 174.153 269.956 173.684 271.682 172.747C273.458 171.76 275.062 170.626 276.492 169.343C277.923 168.011 279.132 166.778 280.118 165.643C281.105 164.459 281.771 163.694 282.116 163.349C282.116 163.349 282.19 163.423 282.338 163.571C282.536 163.719 282.634 163.793 282.634 163.793C282.289 164.188 281.623 164.977 280.636 166.161C279.65 167.345 278.416 168.628 276.936 170.009C275.456 171.39 273.779 172.574 271.904 173.561C270.03 174.548 268.007 175.041 265.836 175.041ZM279.574 176.077C277.848 176.077 276.54 175.756 275.652 175.115C274.764 174.474 274.32 173.61 274.32 172.525C274.32 171.736 274.592 171.045 275.134 170.453C275.628 169.812 276.22 169.318 276.91 168.973C277.601 168.578 278.144 168.381 278.538 168.381C279.081 168.381 279.451 168.504 279.648 168.751C279.796 168.948 279.87 169.17 279.87 169.417C279.87 169.812 279.648 170.132 279.204 170.379C278.711 170.626 278.316 170.749 278.02 170.749C277.675 170.749 277.379 170.65 277.132 170.453C276.836 170.206 276.688 170.083 276.688 170.083C276.442 170.132 276.096 170.404 275.652 170.897C275.208 171.39 274.986 171.933 274.986 172.525C274.986 173.117 275.307 173.684 275.948 174.227C276.59 174.77 277.626 175.041 279.056 175.041C280.536 175.041 281.942 174.548 283.274 173.561C284.656 172.574 285.79 171.316 286.678 169.787C287.566 168.258 288.01 166.704 288.01 165.125C288.01 164.582 288.01 163.867 288.01 162.979C288.01 162.042 288.01 161.277 288.01 160.685C288.01 159.945 288.134 159.106 288.38 158.169C288.627 157.182 288.898 156.27 289.194 155.431C289.54 154.592 289.811 154.074 290.008 153.877C290.403 153.532 290.699 153.433 290.896 153.581C291.094 153.729 291.143 153.877 291.044 154.025C290.995 154.074 290.674 154.469 290.082 155.209C289.49 155.9 288.75 156.763 287.862 157.799C286.974 158.835 286.086 159.871 285.198 160.907C284.31 161.943 283.521 162.856 282.83 163.645C282.189 164.434 281.819 164.903 281.72 165.051C281.474 165.396 281.252 165.47 281.054 165.273C280.857 165.076 280.906 164.829 281.202 164.533C281.745 163.842 282.411 163.028 283.2 162.091C284.039 161.104 284.878 160.142 285.716 159.205C286.555 158.268 287.27 157.478 287.862 156.837C288.504 156.146 288.849 155.752 288.898 155.653C289.046 155.456 289.17 155.11 289.268 154.617C289.416 154.124 289.589 153.655 289.786 153.211C290.033 152.767 290.329 152.545 290.674 152.545C291.513 152.545 291.932 152.841 291.932 153.433C291.932 153.877 291.587 154.42 290.896 155.061C290.255 155.702 289.885 156.22 289.786 156.615C289.638 157.207 289.638 158.046 289.786 159.131C289.984 160.167 290.181 161.351 290.378 162.683C290.625 164.015 290.748 165.421 290.748 166.901C290.748 168.874 290.354 170.478 289.564 171.711C288.775 172.895 287.788 173.808 286.604 174.449C285.42 175.09 284.187 175.51 282.904 175.707C281.671 175.954 280.561 176.077 279.574 176.077ZM290.97 170.971C289.688 170.971 288.849 170.724 288.454 170.231C288.109 169.738 287.986 169.17 288.084 168.529C288.232 167.838 288.405 167.222 288.602 166.679L289.342 166.753C289.194 167.246 289.046 167.764 288.898 168.307C288.8 168.85 288.874 169.318 289.12 169.713C289.367 170.108 290.008 170.305 291.044 170.305C291.784 170.305 292.623 169.96 293.56 169.269C294.498 168.578 295.41 167.74 296.298 166.753C297.236 165.766 298.025 164.804 298.666 163.867L299.332 164.385C298.691 165.174 297.902 166.087 296.964 167.123C296.076 168.159 295.114 169.072 294.078 169.861C293.042 170.601 292.006 170.971 290.97 170.971Z" fill="black"/>
</svg>
